<svg width="487" height="177" viewBox="0 0 487 177" fill="none" xmlns="http://www.w3.org/2000/svg">
<path d="M4.5 86.5L0.5 154.5H20L71.5 86.5H55L17 138L21.5 86.5H4.5Z" fill="#128AFA"/>
<path d="M73.5 102.5L53 154.5H67.5L87.5 102.5H73.5Z" fill="#128AFA"/>
<path d="M79.5 88.5L75.5 98H90L94 88.5H79.5Z" fill="#128AFA"/>
<path d="M117 88.5L111.5 102.5H99.5L95 114.5H106L95 143.5C94.3333 147.167 94.3 154.5 99.5 154.5H118.5L124 142.5H113.5C112.167 142.5 109.9 141.8 111.5 139C113.1 136.2 118.5 122.167 121 115.5H135.5L141 102.5H126.5L132 88.5H117Z" fill="#128AFA"/>
<path fill-rule="evenodd" clip-rule="evenodd" d="M150 134.5H187L195.5 114.5C196.833 110.833 197.5 103.3 189.5 102.5C181.5 101.7 166.167 102.167 159.5 102.5C156.333 102.667 148.9 105.3 144.5 114.5C140.1 123.7 135.333 135.333 133.5 140C132.5 144.833 132.8 154.5 142 154.5H180L185 142.5H150C148.667 141.333 146.8 138.1 150 134.5ZM177 123H155C153.8 119.4 157.5 115.833 159.5 114.5C164.833 114 176 113.5 178 115.5C180 117.5 178.167 121.333 177 123Z" fill="#128AFA"/>
<path d="M158 11L190.5 26L196.5 28.5L260 57.5L196.5 177L266.5 60.5L337.5 89L344 91.5L353.5 95L344 90.5L337.5 87.5L269.5 56L278.5 38.5L279.5 36.5L296 0.5L275 34.5L274 36L263 52.5L199.5 27L193 24.5L158 11Z" fill="#128AFA"/>
<path d="M428 102.5H391C388.5 102.667 382.6 104.9 379 112.5L374 123.5C372.5 127.333 372.2 135 383 135H399.5C401.333 136.167 403.6 139.2 398 142H366.5L361.5 154.5H401C403.167 154 408.3 151.9 411.5 147.5C414.7 143.1 416.833 136.333 417.5 133.5C418.667 129.833 419.4 122.5 413 122.5H390C388.667 120.833 387.5 117 393.5 115H422.5L428 102.5Z" fill="#2B2B2B"/>
<path fill-rule="evenodd" clip-rule="evenodd" d="M320.891 135.442H357.891L366.391 115.442C367.725 111.775 368.391 104.242 360.391 103.442C352.391 102.642 337.058 103.108 330.391 103.442C327.225 103.608 319.791 106.242 315.391 115.442C310.991 124.642 306.225 136.275 304.391 140.942C303.391 145.775 303.691 155.442 312.891 155.442H350.891L355.891 143.442H320.891C319.558 142.275 317.691 139.042 320.891 135.442ZM347.891 123.942H325.891C324.691 120.342 328.391 116.775 330.391 115.442C335.725 114.942 346.891 114.442 348.891 116.442C350.891 118.442 349.058 122.275 347.891 123.942Z" fill="#2B2B2B"/>
<path d="M263.5 154.5L278 115.5C280.167 111.5 286 103.4 292 103C298 102.6 307.833 102.833 312 103L308 114.5L295 115.5C294 115.833 291.6 117.8 290 123C288.4 128.2 281.333 146.167 278 154.5H263.5Z" fill="#2B2B2B"/>
<path d="M250.5 98.5L257.5 86H267C270.167 86.8333 276 90.3 274 97.5C272 104.7 266.5 117.5 264 123C262.5 126.833 256.6 134.5 245 134.5H227.5L235 121.5H246C247.667 121.333 251.3 120.2 252.5 117C253.7 113.8 255.333 109.333 256 107.5C256.667 105.833 257.6 102 256 100C254.4 98 251.667 98.1667 250.5 98.5Z" fill="#2B2B2B"/>
<path d="M218.5 86H237.5L231.5 98.5H227.5L219.5 123L203 154.5H191.5L218.5 86Z" fill="#2B2B2B"/>
<path d="M190.5 26C164.5 39.2 199.667 67.5 220.5 80H225.5C206.5 71 185.897 50.5 186.5 41C186.982 33.4 193.368 29.5 196.5 28.5L190.5 26Z" fill="#2B2B2B"/>
<path d="M275 34.5C235.338 18.7587 201.934 20.6892 193 24.5L199.5 27C206.167 24 232.4 20.8 274 36L275 34.5Z" fill="#2B2B2B"/>
<path d="M344 90.5C340.782 68.5268 299.404 45.2411 279.5 36.5L278.5 38.5C326.147 61.2911 337.49 82.0562 337.5 87.5L344 90.5Z" fill="#2B2B2B"/>
<path d="M342.5 96L344 91.5L337.5 89C338.7 90.6 335.667 94.3333 334 96H342.5Z" fill="#2B2B2B"/>
<path d="M486.5 103H449.5C447 103.167 441.1 105.4 437.5 113L432.5 124C431 127.833 430.7 135.5 441.5 135.5H458C459.833 136.667 462.1 139.7 456.5 142.5H425L420 155H459.5C461.667 154.5 466.8 152.4 470 148C473.2 143.6 475.333 136.833 476 134C477.167 130.333 477.9 123 471.5 123H448.5C447.167 121.333 446 117.5 452 115.5H481L486.5 103Z" fill="#2B2B2B"/>
</svg>
