<svg width="96" height="97" viewBox="0 0 96 97" fill="none" xmlns="http://www.w3.org/2000/svg">
<path d="M0 3L10 13L17 19.5L39.5 42L28.5 57.5L22.5 66.5L3.5 96.5L28 71L35 63.5L48.5 48.5L74 68L81 72.5L95.5 81L83.5 69L78 63.5L53.5 41L64.5 25L69.5 17.5L79.5 0L65 14L58.5 20.5L46 34L19.5 15.5L12 10.5L0 3Z" fill="#128AFA"/>
<path d="M57.5 81.5C68.7 81.5 75 78.5 81 72.5L74 68C61.3607 79.6749 43 68.5 35 63.5L28 71C37 78.5 51.3333 81.5 57.5 81.5Z" fill="#2B2B2B"/>
<path d="M87.5 53.5C87.5 36 75 22.5 69.5 17.5L64.5 25C83.7 43.8 81.6667 58.3333 78 63.5L83.5 69C87 64.5 87.5 56 87.5 53.5Z" fill="#2B2B2B"/>
<path d="M34 2.5C21 2.5 15 7.5 12 10.5L19.5 15.5C33.5 4.3 51.6667 14.3333 58.5 20.5L65 14C57 8.5 47 2.5 34 2.5Z" fill="#2B2B2B"/>
<path d="M5 30.5C5 48.9 17.5 61.5 22.5 66.5L28.5 57.5C24 52.5 11.5 40 17 19.5L10 13C6 18.6 4.66667 27.5 5 30.5Z" fill="#2B2B2B"/>
</svg>
