<svg width="1728" height="1117" viewBox="0 0 1728 1117" fill="none" xmlns="http://www.w3.org/2000/svg">
<g clip-path="url(#clip0_167_7)">
<g opacity="0.74">
<path d="M68.6441 63.1674C65.0243 58.1851 68.1554 51.1526 74.28 50.5089L133.536 44.2808C139.661 43.6371 144.186 49.8649 141.681 55.4909L117.446 109.922C114.942 115.548 107.286 116.353 103.666 111.371L68.6441 63.1674Z" fill="url(#paint0_linear_167_7)"/>
</g>
<g opacity="0.99">
<path d="M293.728 27.0847C290.837 32.5223 283.144 32.7909 279.88 27.5683L259.871 -4.4529C256.608 -9.67552 260.222 -16.4725 266.376 -16.6874L304.112 -18.0051C310.267 -18.2201 314.346 -11.6918 311.455 -6.25424L293.728 27.0847Z" fill="url(#paint1_linear_167_7)"/>
</g>
<g opacity="0.88">
<path d="M621.838 84.9363C620.348 78.9609 625.886 73.6134 631.805 75.3109L671.098 86.5779C677.018 88.2754 678.881 95.7448 674.451 100.023L645.047 128.418C640.617 132.696 633.217 130.574 631.727 124.599L621.838 84.9363Z" fill="url(#paint2_linear_167_7)"/>
</g>
<g opacity="0.74">
<path d="M799.17 37.7747C804.92 35.5678 810.902 40.4123 809.939 46.4949L802.731 92.0002C801.768 98.0828 794.581 100.841 789.795 96.9659L753.99 67.9715C749.204 64.0959 750.409 56.4926 756.158 54.2857L799.17 37.7747Z" fill="url(#paint3_linear_167_7)"/>
</g>
<g opacity="0.7">
<path d="M972.264 169.461C977.246 173.081 976.441 180.737 970.815 183.241L882.206 222.693C876.58 225.198 870.352 220.673 870.996 214.548L881.135 118.085C881.779 111.96 888.811 108.829 893.793 112.449L972.264 169.461Z" fill="url(#paint4_linear_167_7)"/>
</g>
<g opacity="0.77">
<path d="M1343.35 60.1709C1347.55 55.6669 1355.05 57.3986 1356.85 63.2879L1380.35 140.143C1382.15 146.033 1376.9 151.663 1370.9 150.277L1292.59 132.199C1286.59 130.813 1284.34 123.452 1288.54 118.948L1343.35 60.1709Z" fill="url(#paint5_linear_167_7)"/>
</g>
<g opacity="0.95">
<path d="M1434.87 58.798C1432.87 64.6209 1425.31 66.0897 1421.27 61.4419L1392.41 28.2392C1388.37 23.5914 1390.87 16.3128 1396.92 15.1377L1440.1 6.7432C1446.15 5.56812 1451.2 11.3779 1449.19 17.2008L1434.87 58.798Z" fill="url(#paint6_linear_167_7)"/>
</g>
<g opacity="0.97">
<path d="M1655.52 40.4706C1661.6 39.5072 1666.45 45.4897 1664.24 51.2391L1644.38 102.983C1642.17 108.733 1634.57 109.937 1630.69 105.151L1595.81 62.0772C1591.94 57.2912 1594.7 50.1045 1600.78 49.1411L1655.52 40.4706Z" fill="url(#paint7_linear_167_7)"/>
</g>
<g opacity="0.81">
<path d="M178.15 213.925C171.992 214.033 168.028 207.434 171.013 202.048L191.334 165.388C194.32 160.001 202.017 159.867 205.189 165.146L226.777 201.074C229.949 206.353 226.216 213.086 220.059 213.194L178.15 213.925Z" fill="url(#paint8_linear_167_7)"/>
</g>
<g opacity="0.93">
<path d="M259.645 216.192C255.769 220.978 248.166 219.774 245.959 214.025L229.448 171.012C227.241 165.263 232.085 159.281 238.168 160.244L283.673 167.451C289.756 168.415 292.515 175.601 288.639 180.387L259.645 216.192Z" fill="url(#paint9_linear_167_7)"/>
</g>
<g opacity="0.97">
<path d="M515.852 106.978C509.828 108.258 504.677 102.538 506.58 96.6806L520.175 54.8397C522.078 48.9827 529.608 47.3822 533.728 51.9588L563.166 84.6528C567.287 89.2294 564.908 96.5506 558.884 97.831L515.852 106.978Z" fill="url(#paint10_linear_167_7)"/>
</g>
<g opacity="0.91">
<path d="M734.475 208.983C729.689 212.859 722.503 210.1 721.539 204.017L711.568 141.063C710.605 134.98 716.587 130.136 722.337 132.343L781.843 155.185C787.592 157.392 788.796 164.995 784.01 168.871L734.475 208.983Z" fill="url(#paint11_linear_167_7)"/>
</g>
<g opacity="0.88">
<path d="M985.097 162.789C983.503 168.737 976.067 170.73 971.712 166.375L908.27 102.933C903.916 98.5785 905.908 91.1428 911.857 89.5489L998.52 66.3276C1004.47 64.7337 1009.91 70.177 1008.32 76.1256L985.097 162.789Z" fill="url(#paint12_linear_167_7)"/>
</g>
<g opacity="0.75">
<path d="M1185.21 240.629C1182.9 246.339 1175.28 247.41 1171.49 242.557L1120.73 177.589C1116.94 172.736 1119.82 165.599 1125.92 164.742L1207.56 153.268C1213.66 152.411 1218.4 158.477 1216.09 164.187L1185.21 240.629Z" fill="url(#paint13_linear_167_7)"/>
</g>
<g opacity="0.88">
<path d="M1459.82 124.994C1457.61 119.245 1462.45 113.262 1468.54 114.226L1530.46 124.034C1536.55 124.997 1539.31 132.184 1535.43 136.97L1495.97 185.697C1492.1 190.483 1484.49 189.279 1482.29 183.53L1459.82 124.994Z" fill="url(#paint14_linear_167_7)"/>
</g>
<g opacity="0.81">
<path d="M1565.63 182.451C1561.2 178.173 1563.06 170.703 1568.98 169.006L1643.24 147.713C1649.16 146.015 1654.69 151.363 1653.2 157.338L1634.52 232.293C1633.03 238.269 1625.63 240.391 1621.2 236.113L1565.63 182.451Z" fill="url(#paint15_linear_167_7)"/>
</g>
<g opacity="0.97">
<path d="M247.445 420.093C253.268 418.088 259.078 423.138 257.903 429.184L242.37 509.094C241.195 515.14 233.916 517.646 229.268 513.605L167.83 460.198C163.182 456.158 164.651 448.601 170.474 446.596L247.445 420.093Z" fill="url(#paint16_linear_167_7)"/>
</g>
<g opacity="0.73">
<path d="M324.582 322.739C320.461 318.162 322.84 310.841 328.864 309.56L363.764 302.142C369.788 300.862 374.939 306.582 373.036 312.439L362.01 346.373C360.107 352.23 352.577 353.831 348.457 349.254L324.582 322.739Z" fill="url(#paint17_linear_167_7)"/>
</g>
<g opacity="0.78">
<path d="M586.298 416.956C591.736 414.064 598.264 418.144 598.049 424.298L594.773 518.118C594.558 524.273 587.761 527.887 582.539 524.623L502.926 474.876C497.704 471.613 497.972 463.919 503.41 461.028L586.298 416.956Z" fill="url(#paint18_linear_167_7)"/>
</g>
<g opacity="0.89">
<path d="M711.065 284.42C705.145 286.117 699.608 280.77 701.097 274.794L715.512 216.982C717.002 211.006 724.401 208.884 728.831 213.162L771.692 254.552C776.121 258.83 774.259 266.299 768.339 267.997L711.065 284.42Z" fill="url(#paint19_linear_167_7)"/>
</g>
<g opacity="0.76">
<path d="M931.369 291.329C925.271 290.472 922.387 283.334 926.178 278.482L969.899 222.522C973.69 217.669 981.313 218.74 983.62 224.45L1010.22 290.293C1012.53 296.003 1007.79 302.069 1001.69 301.212L931.369 291.329Z" fill="url(#paint20_linear_167_7)"/>
</g>
<g opacity="0.94">
<path d="M1178.79 362.767C1172.77 364.048 1167.62 358.327 1169.52 352.47L1195.96 271.095C1197.86 265.238 1205.39 263.637 1209.51 268.214L1266.77 331.8C1270.89 336.376 1268.51 343.697 1262.49 344.978L1178.79 362.767Z" fill="url(#paint21_linear_167_7)"/>
</g>
<g opacity="0.7">
<path d="M1472.54 297.566C1474.54 291.744 1482.1 290.275 1486.14 294.923L1514.32 327.341C1518.36 331.989 1515.86 339.267 1509.81 340.442L1467.65 348.639C1461.6 349.814 1456.55 344.004 1458.55 338.181L1472.54 297.566Z" fill="url(#paint22_linear_167_7)"/>
</g>
<g opacity="0.79">
<path d="M1657.56 338.21C1652.91 334.17 1654.38 326.613 1660.21 324.608L1729.32 300.811C1735.14 298.807 1740.95 303.857 1739.77 309.902L1725.83 381.652C1724.65 387.697 1717.37 390.203 1712.73 386.163L1657.56 338.21Z" fill="url(#paint23_linear_167_7)"/>
</g>
<g opacity="0.84">
<path d="M61.0863 404.698C55.5991 407.494 49.1431 403.302 49.4654 397.152L52.0942 346.991C52.4165 340.841 59.2754 337.346 64.4403 340.7L106.566 368.057C111.731 371.411 111.328 379.099 105.841 381.895L61.0863 404.698Z" fill="url(#paint24_linear_167_7)"/>
</g>
<g opacity="0.88">
<path d="M328.499 575.729C334.623 576.372 337.755 583.405 334.135 588.387L302.167 632.387C298.547 637.369 290.892 636.564 288.387 630.938L266.266 581.254C263.761 575.628 268.286 569.4 274.41 570.044L328.499 575.729Z" fill="url(#paint25_linear_167_7)"/>
</g>
<g opacity="0.98">
<path d="M392.38 495.343C387.732 499.384 380.454 496.878 379.279 490.832L360.771 395.619C359.596 389.574 365.406 384.524 371.229 386.529L462.939 418.107C468.762 420.112 470.231 427.669 465.583 431.709L392.38 495.343Z" fill="url(#paint26_linear_167_7)"/>
</g>
<g opacity="0.73">
<path d="M651.091 437.3C647.132 442.018 639.551 440.681 637.445 434.894L616.355 376.952C614.249 371.165 619.197 365.268 625.262 366.337L685.986 377.044C692.051 378.114 694.684 385.347 690.726 390.065L651.091 437.3Z" fill="url(#paint27_linear_167_7)"/>
</g>
<g opacity="0.77">
<path d="M980.528 454.056C974.371 453.949 970.639 447.216 973.811 441.937L993.258 409.572C996.43 404.293 1004.13 404.427 1007.11 409.813L1025.42 442.838C1028.4 448.224 1024.44 454.823 1018.28 454.715L980.528 454.056Z" fill="url(#paint28_linear_167_7)"/>
</g>
<g opacity="0.75">
<path d="M1189.03 492.786C1192.02 498.172 1188.05 504.77 1181.9 504.663L1134.79 503.841C1128.63 503.733 1124.9 497 1128.07 491.721L1152.34 451.339C1155.51 446.06 1163.21 446.194 1166.19 451.581L1189.03 492.786Z" fill="url(#paint29_linear_167_7)"/>
</g>
<g opacity="0.89">
<path d="M1349.27 547.75C1355.42 547.535 1359.5 554.064 1356.61 559.501L1320.34 627.708C1317.45 633.146 1309.76 633.415 1306.49 628.192L1265.56 562.681C1262.29 557.458 1265.91 550.661 1272.06 550.446L1349.27 547.75Z" fill="url(#paint30_linear_167_7)"/>
</g>
<g opacity="0.8">
<path d="M1631.49 447.293C1626.91 451.414 1619.59 449.035 1618.31 443.011L1610.89 408.111C1609.61 402.087 1615.33 396.936 1621.19 398.839L1655.12 409.865C1660.98 411.768 1662.58 419.298 1658 423.418L1631.49 447.293Z" fill="url(#paint31_linear_167_7)"/>
</g>
<g opacity="0.7">
<path d="M-9.7244 614.266C-7.21955 619.892 -11.7443 626.12 -17.869 625.476L-101.93 616.641C-108.055 615.997 -111.186 608.965 -107.566 603.982L-57.8839 535.601C-54.2641 530.619 -46.6083 531.423 -44.1034 537.049L-9.7244 614.266Z" fill="url(#paint32_linear_167_7)"/>
</g>
<g opacity="0.78">
<path d="M216.983 678.467C213.719 683.689 206.026 683.421 203.135 677.983L162.965 602.435C160.074 596.998 164.153 590.469 170.308 590.684L255.819 593.67C261.974 593.885 265.588 600.682 262.324 605.905L216.983 678.467Z" fill="url(#paint33_linear_167_7)"/>
</g>
<g opacity="0.94">
<path d="M434.604 679.335C438.804 683.839 436.554 691.2 430.553 692.586L348.195 711.599C342.195 712.985 336.945 707.355 338.745 701.465L363.458 620.635C365.258 614.745 372.759 613.014 376.959 617.518L434.604 679.335Z" fill="url(#paint34_linear_167_7)"/>
</g>
<g opacity="0.71">
<path d="M767.164 597.283C772.082 593.577 779.168 596.584 779.919 602.697L789.207 678.339C789.957 684.452 783.809 689.084 778.14 686.678L707.989 656.9C702.32 654.494 701.382 646.854 706.3 643.147L767.164 597.283Z" fill="url(#paint35_linear_167_7)"/>
</g>
<g opacity="0.86">
<path d="M1005.91 534.838C1000.09 536.843 994.281 531.793 995.456 525.747L1010.39 448.897C1011.57 442.852 1018.85 440.346 1023.5 444.386L1082.58 495.748C1087.23 499.788 1085.76 507.345 1079.94 509.35L1005.91 534.838Z" fill="url(#paint36_linear_167_7)"/>
</g>
<g opacity="0.72">
<path d="M1294.18 722.31C1300 724.315 1301.47 731.872 1296.82 735.912L1226.76 796.819C1222.11 800.859 1214.83 798.353 1213.66 792.308L1195.94 701.176C1194.77 695.13 1200.58 690.08 1206.4 692.085L1294.18 722.31Z" fill="url(#paint37_linear_167_7)"/>
</g>
<g opacity="0.88">
<path d="M1359.37 623.225C1363.73 618.87 1371.16 620.862 1372.76 626.811L1394.9 709.459C1396.5 715.407 1391.05 720.851 1385.11 719.257L1302.46 697.111C1296.51 695.517 1294.52 688.082 1298.87 683.727L1359.37 623.225Z" fill="url(#paint38_linear_167_7)"/>
</g>
<g opacity="0.74">
<path d="M1694.45 612.192C1699.43 608.572 1706.46 611.703 1707.11 617.828L1712.47 668.816C1713.11 674.94 1706.88 679.465 1701.26 676.96L1654.42 656.107C1648.79 653.602 1647.99 645.947 1652.97 642.327L1694.45 612.192Z" fill="url(#paint39_linear_167_7)"/>
</g>
<g opacity="0.86">
<path d="M85.2503 676.121C80.0277 679.384 73.2308 675.77 73.0159 669.616L70.9365 610.069C70.7215 603.915 77.2498 599.835 82.6874 602.727L135.296 630.699C140.733 633.59 141.002 641.283 135.779 644.547L85.2503 676.121Z" fill="url(#paint40_linear_167_7)"/>
</g>
<g opacity="0.88">
<path d="M295.41 837.391C301.455 836.216 306.506 842.026 304.501 847.849L292.884 881.585C290.879 887.408 283.323 888.877 279.282 884.229L255.874 857.301C251.834 852.653 254.34 845.374 260.385 844.199L295.41 837.391Z" fill="url(#paint41_linear_167_7)"/>
</g>
<g opacity="0.82">
<path d="M516.059 842.439C520.978 838.733 528.064 841.741 528.814 847.853L537.849 921.432C538.599 927.545 532.451 932.178 526.783 929.771L458.544 900.806C452.875 898.399 451.937 890.759 456.855 887.053L516.059 842.439Z" fill="url(#paint42_linear_167_7)"/>
</g>
<g opacity="0.71">
<path d="M751.59 653.47C745.59 652.085 743.339 644.723 747.539 640.22L788.883 595.884C793.083 591.38 800.584 593.111 802.384 599.001L820.108 656.973C821.909 662.863 816.659 668.493 810.658 667.107L751.59 653.47Z" fill="url(#paint43_linear_167_7)"/>
</g>
<g opacity="0.7">
<path d="M915.643 652.939C909.486 653.046 905.521 646.448 908.506 641.062L945.958 573.498C948.943 568.111 956.64 567.977 959.812 573.256L999.598 639.472C1002.77 644.75 999.038 651.483 992.881 651.591L915.643 652.939Z" fill="url(#paint44_linear_167_7)"/>
</g>
<g opacity="0.94">
<path d="M1156.63 768.883C1150.49 769.312 1146.18 762.93 1148.88 757.395L1176.37 701.041C1179.07 695.505 1186.75 694.968 1190.19 700.074L1225.25 752.055C1228.7 757.16 1225.32 764.079 1219.18 764.509L1156.63 768.883Z" fill="url(#paint45_linear_167_7)"/>
</g>
<g opacity="0.9">
<path d="M1318.87 740.105C1313.08 742.211 1307.18 737.263 1308.25 731.198L1325.09 635.677C1326.16 629.612 1333.4 626.979 1338.11 630.938L1412.42 693.285C1417.13 697.244 1415.8 704.825 1410.01 706.931L1318.87 740.105Z" fill="url(#paint46_linear_167_7)"/>
</g>
<g opacity="0.77">
<path d="M1583.25 795.986C1582.61 789.862 1588.84 785.337 1594.46 787.842L1646.99 811.231C1652.62 813.736 1653.43 821.392 1648.44 825.011L1601.92 858.811C1596.94 862.431 1589.91 859.3 1589.26 853.176L1583.25 795.986Z" fill="url(#paint47_linear_167_7)"/>
</g>
<g opacity="0.71">
<path d="M63.6756 928.621C60.2318 933.727 52.5526 933.19 49.8529 927.655L22.3669 871.3C19.6673 865.765 23.9719 859.383 30.1153 859.813L92.6628 864.186C98.8062 864.616 102.181 871.535 98.7371 876.64L63.6756 928.621Z" fill="url(#paint48_linear_167_7)"/>
</g>
<g opacity="0.77">
<path d="M287.988 947.331C287.666 953.481 280.807 956.976 275.642 953.622L204.754 907.587C199.589 904.233 199.992 896.545 205.479 893.749L280.791 855.376C286.278 852.58 292.734 856.773 292.412 862.923L287.988 947.331Z" fill="url(#paint49_linear_167_7)"/>
</g>
<g opacity="0.93">
<path d="M506.123 903.27C503.138 908.656 495.441 908.79 492.269 903.511L473.892 872.928C470.721 867.649 474.453 860.916 480.61 860.808L516.285 860.186C522.442 860.078 526.407 866.677 523.421 872.063L506.123 903.27Z" fill="url(#paint50_linear_167_7)"/>
</g>
<g opacity="0.99">
<path d="M755.589 888.551C756.975 882.551 764.336 880.3 768.84 884.5L838.258 949.233C842.762 953.433 841.03 960.934 835.141 962.734L744.372 990.485C738.482 992.286 732.852 987.036 734.238 981.035L755.589 888.551Z" fill="url(#paint51_linear_167_7)"/>
</g>
<g opacity="0.71">
<path d="M849.202 956.651C854.307 960.095 853.77 967.774 848.235 970.474L776.936 1005.25C771.4 1007.95 765.018 1003.64 765.448 997.5L770.982 918.366C771.411 912.222 778.33 908.848 783.436 912.291L849.202 956.651Z" fill="url(#paint52_linear_167_7)"/>
</g>
<g opacity="0.79">
<path d="M1248.69 864.915C1248.8 858.758 1255.53 855.026 1260.81 858.197L1306.54 885.673C1311.82 888.845 1311.68 896.542 1306.3 899.528L1259.64 925.391C1254.25 928.376 1247.65 924.412 1247.76 918.254L1248.69 864.915Z" fill="url(#paint53_linear_167_7)"/>
</g>
<g opacity="0.95">
<path d="M1471.73 903.259C1468.65 897.926 1472.5 891.259 1478.66 891.259L1529.93 891.259C1536.08 891.259 1539.93 897.926 1536.85 903.259L1511.22 947.659C1508.14 952.993 1500.44 952.993 1497.36 947.659L1471.73 903.259Z" fill="url(#paint54_linear_167_7)"/>
</g>
<g opacity="0.76">
<path d="M1565.31 917.13C1569.74 921.408 1567.87 928.878 1561.96 930.575L1521.66 942.129C1515.74 943.826 1510.21 938.479 1511.7 932.503L1521.84 891.833C1523.33 885.857 1530.73 883.735 1535.16 888.013L1565.31 917.13Z" fill="url(#paint55_linear_167_7)"/>
</g>
<g opacity="0.88">
<path d="M-9.11524 1073.75C-4.91522 1078.25 -7.16589 1085.62 -13.1665 1087L-82.3604 1102.98C-88.361 1104.36 -93.611 1098.73 -91.8105 1092.84L-71.048 1024.93C-69.2475 1019.04 -61.7467 1017.31 -57.5467 1021.81L-9.11524 1073.75Z" fill="url(#paint56_linear_167_7)"/>
</g>
<g opacity="0.96">
<path d="M255.627 1087.52C255.627 1093.68 248.96 1097.53 243.627 1094.45L204.627 1071.93C199.294 1068.85 199.294 1061.15 204.627 1058.07L243.627 1035.56C248.96 1032.48 255.627 1036.33 255.627 1042.49L255.627 1087.52Z" fill="url(#paint57_linear_167_7)"/>
</g>
<g opacity="0.72">
<path d="M511.106 1036.69C510.356 1030.57 516.504 1025.94 522.173 1028.35L569.366 1048.38C575.035 1050.78 575.973 1058.43 571.054 1062.13L530.109 1092.99C525.191 1096.69 518.105 1093.68 517.355 1087.57L511.106 1036.69Z" fill="url(#paint58_linear_167_7)"/>
</g>
<g opacity="0.76">
<path d="M692.511 1057.97C692.188 1064.12 685.329 1067.62 680.164 1064.26L647.626 1043.13C642.461 1039.78 642.864 1032.09 648.351 1029.29L682.92 1011.68C688.407 1008.88 694.863 1013.08 694.541 1019.23L692.511 1057.97Z" fill="url(#paint59_linear_167_7)"/>
</g>
<g opacity="0.72">
<path d="M1112.8 1109.93C1118.08 1106.76 1124.81 1110.49 1124.92 1116.64L1126.39 1201.16C1126.5 1207.31 1119.9 1211.28 1114.52 1208.29L1040.59 1167.31C1035.2 1164.33 1035.07 1156.63 1040.35 1153.46L1112.8 1109.93Z" fill="url(#paint60_linear_167_7)"/>
</g>
<g opacity="0.78">
<path d="M1108.66 1098.12C1114.55 1096.32 1120.18 1101.57 1118.79 1107.57L1107.49 1156.51C1106.11 1162.51 1098.75 1164.76 1094.24 1160.56L1057.51 1126.3C1053 1122.1 1054.74 1114.6 1060.63 1112.8L1108.66 1098.12Z" fill="url(#paint61_linear_167_7)"/>
</g>
<g opacity="0.7">
<path d="M1473.98 1048.13C1469.13 1051.93 1461.99 1049.04 1461.14 1042.94L1456.17 1007.61C1455.31 1001.51 1461.38 996.772 1467.09 999.079L1500.17 1012.45C1505.88 1014.75 1506.95 1022.38 1502.1 1026.17L1473.98 1048.13Z" fill="url(#paint62_linear_167_7)"/>
</g>
<g opacity="0.86">
<path d="M1576.17 1067.63C1571.97 1072.14 1564.47 1070.41 1562.67 1064.52L1544.64 1005.55C1542.84 999.661 1548.09 994.031 1554.09 995.416L1614.17 1009.29C1620.17 1010.67 1622.43 1018.03 1618.23 1022.54L1576.17 1067.63Z" fill="url(#paint63_linear_167_7)"/>
</g>
<g opacity="0.93">
<path d="M167.231 16.258C161.208 14.9776 158.829 7.65637 162.95 3.07978L224.375 -65.1399C228.496 -69.7165 236.025 -68.116 237.929 -62.259L266.296 25.0467C268.199 30.9037 263.048 36.6244 257.024 35.344L167.231 16.258Z" fill="url(#paint64_linear_167_7)"/>
</g>
<g opacity="0.78">
<path d="M382.422 -22.9399C376.309 -22.1894 371.676 -28.3373 374.083 -34.0061L397.363 -88.8522C399.77 -94.521 407.41 -95.4591 411.117 -90.5408L446.974 -42.9561C450.68 -38.0378 447.673 -30.9517 441.56 -30.2012L382.422 -22.9399Z" fill="url(#paint65_linear_167_7)"/>
</g>
<g opacity="0.73">
<path d="M543.008 149.184C545.114 154.971 540.166 160.868 534.101 159.799L465.189 147.648C459.124 146.578 456.491 139.345 460.45 134.627L505.429 81.0231C509.387 76.3055 516.968 77.6423 519.075 83.4293L543.008 149.184Z" fill="url(#paint66_linear_167_7)"/>
</g>
<g opacity="0.96">
<path d="M707.31 79.3498C712.027 75.3912 719.261 78.0241 720.33 84.0889L730.857 143.79C731.927 149.855 726.03 154.803 720.243 152.696L663.277 131.963C657.49 129.856 656.153 122.275 660.871 118.317L707.31 79.3498Z" fill="url(#paint67_linear_167_7)"/>
</g>
<g opacity="0.82">
<path d="M1099.83 31.0661C1097.42 25.3973 1102.06 19.2494 1108.17 19.9999L1170.4 27.6411C1176.51 28.3917 1179.52 35.4777 1175.81 40.396L1138.08 90.4707C1134.37 95.389 1126.73 94.4508 1124.33 88.782L1099.83 31.0661Z" fill="url(#paint68_linear_167_7)"/>
</g>
<g opacity="0.98">
<path d="M1212.76 143.335C1218.79 144.615 1221.17 151.937 1217.04 156.513L1174.39 203.881C1170.27 208.457 1162.74 206.857 1160.84 201L1141.14 140.38C1139.24 134.523 1144.39 128.802 1150.42 130.083L1212.76 143.335Z" fill="url(#paint69_linear_167_7)"/>
</g>
<g opacity="0.86">
<path d="M1367.63 103.465C1366.35 97.4411 1372.07 92.2901 1377.93 94.1932L1410.88 104.898C1416.73 106.801 1418.33 114.331 1413.76 118.451L1388.01 141.631C1383.44 145.752 1376.12 143.373 1374.84 137.349L1367.63 103.465Z" fill="url(#paint70_linear_167_7)"/>
</g>
<g opacity="0.73">
<path d="M113.656 181.189C111.753 175.332 116.904 169.611 122.928 170.891L215.77 190.625C221.794 191.906 224.173 199.227 220.052 203.804L156.541 274.34C152.42 278.917 144.89 277.316 142.987 271.459L113.656 181.189Z" fill="url(#paint71_linear_167_7)"/>
</g>
<g opacity="0.88">
<path d="M356.559 176.462C361.207 180.502 359.738 188.059 353.915 190.064L320.179 201.68C314.356 203.685 308.546 198.635 309.721 192.589L316.529 157.565C317.704 151.52 324.983 149.013 329.631 153.054L356.559 176.462Z" fill="url(#paint72_linear_167_7)"/>
</g>
<g opacity="0.88">
<path d="M542.392 239.249C547.615 235.985 554.412 239.599 554.627 245.754L556.271 292.837C556.486 298.992 549.958 303.071 544.52 300.18L502.923 278.062C497.485 275.171 497.217 267.478 502.439 264.214L542.392 239.249Z" fill="url(#paint73_linear_167_7)"/>
</g>
<g opacity="0.75">
<path d="M721.559 141.84C720.595 147.923 713.409 150.682 708.623 146.806L681.702 125.006C676.916 121.13 678.12 113.527 683.869 111.32L716.209 98.9058C721.959 96.6988 727.941 101.543 726.978 107.626L721.559 141.84Z" fill="url(#paint74_linear_167_7)"/>
</g>
<g opacity="0.72">
<path d="M957.573 171.849C952.408 168.495 952.811 160.807 958.298 158.012L1020.65 126.244C1026.13 123.448 1032.59 127.64 1032.27 133.79L1028.6 203.669C1028.28 209.819 1021.42 213.314 1016.26 209.96L957.573 171.849Z" fill="url(#paint75_linear_167_7)"/>
</g>
<g opacity="0.92">
<path d="M1196.34 303.675C1200.92 307.796 1199.32 315.325 1193.46 317.228L1153.6 330.181C1147.74 332.084 1142.02 326.933 1143.3 320.909L1152.02 279.91C1153.3 273.886 1160.62 271.507 1165.2 275.628L1196.34 303.675Z" fill="url(#paint76_linear_167_7)"/>
</g>
<g opacity="0.75">
<path d="M1420.75 242.462C1415.9 246.253 1408.76 243.369 1407.9 237.271L1401.06 188.559C1400.2 182.461 1406.27 177.722 1411.98 180.029L1457.59 198.456C1463.3 200.762 1464.37 208.386 1459.51 212.177L1420.75 242.462Z" fill="url(#paint77_linear_167_7)"/>
</g>
<g opacity="0.74">
<path d="M1692.02 237.925C1697 241.545 1696.19 249.201 1690.57 251.706L1613.35 286.085C1607.73 288.59 1601.5 284.065 1602.14 277.94L1610.98 193.879C1611.62 187.755 1618.65 184.624 1623.64 188.243L1692.02 237.925Z" fill="url(#paint78_linear_167_7)"/>
</g>
<g opacity="0.8">
<path d="M177.17 359.449C171.221 361.043 165.778 355.6 167.372 349.651L191.4 259.977C192.994 254.028 200.43 252.036 204.784 256.39L270.43 322.037C274.785 326.391 272.793 333.827 266.844 335.421L177.17 359.449Z" fill="url(#paint79_linear_167_7)"/>
</g>
<g opacity="0.81">
<path d="M366.187 271.923C361.909 267.493 364.031 260.094 370.006 258.604L425.802 244.692C431.778 243.202 437.125 248.74 435.428 254.66L419.577 309.936C417.88 315.856 410.411 317.718 406.133 313.288L366.187 271.923Z" fill="url(#paint80_linear_167_7)"/>
</g>
<g opacity="0.84">
<path d="M576.574 369.286C580.28 364.368 587.92 365.306 590.327 370.975L623.759 449.737C626.165 455.405 621.532 461.553 615.42 460.803L530.494 450.375C524.382 449.625 521.374 442.539 525.08 437.62L576.574 369.286Z" fill="url(#paint81_linear_167_7)"/>
</g>
<g opacity="0.89">
<path d="M769.524 415.164C770.487 409.082 777.674 406.323 782.46 410.198L823.919 443.771C828.705 447.647 827.5 455.25 821.751 457.457L771.947 476.575C766.198 478.782 760.215 473.937 761.179 467.855L769.524 415.164Z" fill="url(#paint82_linear_167_7)"/>
</g>
<g opacity="0.73">
<path d="M854.069 410.557C852.165 416.414 844.636 418.014 840.515 413.438L817.336 387.694C813.215 383.118 815.594 375.796 821.617 374.516L855.501 367.314C861.525 366.033 866.676 371.754 864.773 377.611L854.069 410.557Z" fill="url(#paint83_linear_167_7)"/>
</g>
<g opacity="0.8">
<path d="M1129.97 307.308C1129.12 313.406 1121.98 316.29 1117.13 312.498L1066.9 273.256C1062.05 269.465 1063.12 261.842 1068.83 259.535L1127.92 235.658C1133.63 233.351 1139.7 238.09 1138.84 244.189L1129.97 307.308Z" fill="url(#paint84_linear_167_7)"/>
</g>
<g opacity="0.95">
<path d="M1457.19 367.558C1457.62 373.702 1451.24 378.006 1445.7 375.307L1414.57 360.121C1409.03 357.421 1408.49 349.742 1413.6 346.298L1442.32 326.927C1447.42 323.484 1454.34 326.858 1454.77 333.002L1457.19 367.558Z" fill="url(#paint85_linear_167_7)"/>
</g>
<g opacity="0.86">
<path d="M1576.42 405.262C1579.68 400.04 1587.37 400.308 1590.27 405.746L1629.95 480.376C1632.84 485.814 1628.76 492.342 1622.6 492.127L1538.13 489.177C1531.98 488.962 1528.36 482.165 1531.63 476.943L1576.42 405.262Z" fill="url(#paint86_linear_167_7)"/>
</g>
<g opacity="0.86">
<path d="M182.517 532.887C188.406 531.087 194.036 536.337 192.651 542.337L184.624 577.103C183.239 583.104 175.877 585.354 171.373 581.154L145.278 556.821C140.774 552.62 142.506 545.12 148.395 543.319L182.517 532.887Z" fill="url(#paint87_linear_167_7)"/>
</g>
<g opacity="0.85">
<path d="M348.17 499.519C346.68 505.494 339.28 507.616 334.85 503.338L309.184 478.552C304.754 474.274 306.616 466.805 312.536 465.107L346.834 455.273C352.754 453.575 358.292 458.923 356.802 464.898L348.17 499.519Z" fill="url(#paint88_linear_167_7)"/>
</g>
<g opacity="0.92">
<path d="M521.956 510.01C519.16 515.497 511.472 515.9 508.118 510.735L478.497 465.123C475.143 459.958 478.638 453.099 484.788 452.776L539.1 449.93C545.25 449.608 549.442 456.064 546.647 461.551L521.956 510.01Z" fill="url(#paint89_linear_167_7)"/>
</g>
<g opacity="0.84">
<path d="M788.174 546.166C791.706 551.21 788.453 558.187 782.318 558.724L700.186 565.909C694.051 566.446 689.636 560.14 692.238 554.559L727.081 479.838C729.684 474.256 737.353 473.586 740.885 478.63L788.174 546.166Z" fill="url(#paint90_linear_167_7)"/>
</g>
<g opacity="0.71">
<path d="M1134.49 519.973C1135.35 513.875 1142.49 510.991 1147.34 514.783L1218.86 570.66C1223.71 574.451 1222.64 582.074 1216.93 584.381L1132.78 618.381C1127.07 620.687 1121 615.948 1121.86 609.85L1134.49 519.973Z" fill="url(#paint91_linear_167_7)"/>
</g>
<g opacity="0.85">
<path d="M1144.26 518.527C1147.43 513.248 1155.13 513.383 1158.11 518.769L1181.96 561.792C1184.94 567.178 1180.98 573.776 1174.82 573.669L1125.64 572.811C1119.48 572.703 1115.75 565.97 1118.92 560.691L1144.26 518.527Z" fill="url(#paint92_linear_167_7)"/>
</g>
<g opacity="0.76">
<path d="M1487.17 529.678C1486 523.633 1491.81 518.582 1497.63 520.587L1533.33 532.88C1539.15 534.885 1540.62 542.442 1535.97 546.482L1507.48 571.254C1502.83 575.294 1495.55 572.788 1494.38 566.743L1487.17 529.678Z" fill="url(#paint93_linear_167_7)"/>
</g>
<g opacity="0.96">
<path d="M1726.44 483.249C1731.93 480.454 1738.38 484.646 1738.06 490.796L1734.67 555.486C1734.35 561.636 1727.49 565.131 1722.32 561.777L1668 526.496C1662.83 523.142 1663.23 515.454 1668.72 512.658L1726.44 483.249Z" fill="url(#paint94_linear_167_7)"/>
</g>
<g opacity="0.74">
<path d="M64.0972 661.101C69.1418 657.569 76.1186 660.822 76.6553 666.957L84.475 756.336C85.0117 762.471 78.7059 766.886 73.1245 764.284L-8.18969 726.366C-13.7711 723.764 -14.442 716.095 -9.39735 712.563L64.0972 661.101Z" fill="url(#paint95_linear_167_7)"/>
</g>
<g opacity="0.94">
<path d="M314.559 711.975C316.966 717.644 312.333 723.792 306.22 723.041L270.806 718.693C264.694 717.943 261.686 710.856 265.392 705.938L286.865 677.443C290.571 672.524 298.212 673.462 300.618 679.131L314.559 711.975Z" fill="url(#paint96_linear_167_7)"/>
</g>
<g opacity="0.88">
<path d="M537.973 598.884C533.932 603.531 526.376 602.063 524.371 596.24L506.326 543.834C504.321 538.011 509.371 532.201 515.416 533.376L569.824 543.952C575.869 545.127 578.375 552.406 574.335 557.053L537.973 598.884Z" fill="url(#paint97_linear_167_7)"/>
</g>
<g opacity="0.97">
<path d="M731.307 548.775C725.558 550.982 719.575 546.138 720.539 540.055L732.461 464.783C733.424 458.7 740.611 455.942 745.397 459.817L804.623 507.778C809.409 511.654 808.205 519.257 802.456 521.464L731.307 548.775Z" fill="url(#paint98_linear_167_7)"/>
</g>
<g opacity="0.8">
<path d="M1028.64 622.06C1034.8 622.06 1038.65 628.726 1035.57 634.06L994.869 704.56C991.789 709.893 984.091 709.893 981.012 704.56L940.309 634.06C937.23 628.726 941.079 622.06 947.237 622.06L1028.64 622.06Z" fill="url(#paint99_linear_167_7)"/>
</g>
<g opacity="0.78">
<path d="M1185.44 534.361C1179.77 531.955 1178.84 524.314 1183.75 520.608L1244.62 474.744C1249.54 471.038 1256.62 474.045 1257.37 480.158L1266.66 555.8C1267.41 561.913 1261.26 566.545 1255.59 564.139L1185.44 534.361Z" fill="url(#paint100_linear_167_7)"/>
</g>
<g opacity="0.91">
<path d="M1461.82 696.613C1467.21 693.628 1473.81 697.592 1473.7 703.75L1472.99 744.62C1472.88 750.777 1466.15 754.51 1460.87 751.338L1425.83 730.285C1420.55 727.113 1420.69 719.416 1426.07 716.43L1461.82 696.613Z" fill="url(#paint101_linear_167_7)"/>
</g>
<g opacity="0.98">
<path d="M1576.88 624.709C1572.6 620.279 1574.72 612.879 1580.7 611.389L1616.33 602.506C1622.3 601.016 1627.65 606.553 1625.95 612.473L1615.83 647.77C1614.13 653.69 1606.66 655.552 1602.39 651.122L1576.88 624.709Z" fill="url(#paint102_linear_167_7)"/>
</g>
<g opacity="0.74">
<path d="M61.4395 726.1C58.4539 720.714 62.4187 714.115 68.5761 714.223L123.993 715.19C130.151 715.298 133.883 722.03 130.711 727.309L102.165 774.818C98.9929 780.097 91.2961 779.963 88.3104 774.576L61.4395 726.1Z" fill="url(#paint103_linear_167_7)"/>
</g>
<g opacity="0.91">
<path d="M385.814 822.881C385.814 816.723 392.481 812.874 397.814 815.953L434.114 836.911C439.448 839.99 439.448 847.688 434.114 850.767L397.814 871.725C392.481 874.804 385.814 870.955 385.814 864.797L385.814 822.881Z" fill="url(#paint104_linear_167_7)"/>
</g>
<g opacity="0.84">
<path d="M488.212 757.023C484.858 762.188 477.17 761.785 474.374 756.298L449.683 707.84C446.888 702.352 451.08 695.896 457.23 696.219L511.542 699.065C517.692 699.387 521.187 706.246 517.833 711.411L488.212 757.023Z" fill="url(#paint105_linear_167_7)"/>
</g>
<g opacity="0.9">
<path d="M670.53 831.621C669.993 837.756 663.016 841.01 657.972 837.477L609.164 803.302C604.12 799.77 604.791 792.101 610.372 789.498L664.372 764.318C669.954 761.715 676.259 766.13 675.723 772.265L670.53 831.621Z" fill="url(#paint106_linear_167_7)"/>
</g>
<g opacity="0.86">
<path d="M957.392 770.73C961.183 765.878 968.806 766.949 971.113 772.659L1005.89 858.737C1008.2 864.447 1003.46 870.513 997.36 869.656L905.426 856.735C899.327 855.878 896.444 848.741 900.235 843.888L957.392 770.73Z" fill="url(#paint107_linear_167_7)"/>
</g>
<g opacity="0.7">
<path d="M1244.9 752.519C1238.88 751.238 1236.5 743.917 1240.62 739.34L1295.79 678.071C1299.91 673.495 1307.44 675.095 1309.34 680.952L1334.82 759.363C1336.72 765.22 1331.57 770.941 1325.54 769.66L1244.9 752.519Z" fill="url(#paint108_linear_167_7)"/>
</g>
<g opacity="0.97">
<path d="M1423.59 772.552C1418.61 776.172 1411.58 773.041 1410.93 766.916L1403.4 695.258C1402.76 689.133 1408.98 684.608 1414.61 687.113L1480.43 716.42C1486.06 718.925 1486.86 726.581 1481.88 730.201L1423.59 772.552Z" fill="url(#paint109_linear_167_7)"/>
</g>
<g opacity="0.73">
<path d="M1535.35 809.34C1532.46 814.778 1524.76 815.047 1521.5 809.824L1471.75 730.212C1468.49 724.989 1472.1 718.192 1478.26 717.977L1572.08 714.701C1578.23 714.486 1582.31 721.014 1579.42 726.452L1535.35 809.34Z" fill="url(#paint110_linear_167_7)"/>
</g>
<g opacity="0.89">
<path d="M70.1195 960.258C67.7132 965.927 60.0726 966.865 56.3664 961.947L2.37139 890.293C-1.33483 885.374 1.67302 878.288 7.78552 877.538L96.837 866.604C102.949 865.853 107.582 872.001 105.176 877.67L70.1195 960.258Z" fill="url(#paint111_linear_167_7)"/>
</g>
<g opacity="0.8">
<path d="M336.671 997.095C338.368 1003.02 333.021 1008.55 327.045 1007.06L275.283 994.157C269.307 992.667 267.185 985.267 271.463 980.837L308.521 942.463C312.799 938.033 320.269 939.895 321.966 945.815L336.671 997.095Z" fill="url(#paint112_linear_167_7)"/>
</g>
<g opacity="0.95">
<path d="M496.455 953.325C502.609 953.11 506.689 959.638 503.798 965.076L484.119 1002.09C481.228 1007.52 473.535 1007.79 470.271 1002.57L448.06 967.022C444.796 961.8 448.41 955.003 454.565 954.788L496.455 953.325Z" fill="url(#paint113_linear_167_7)"/>
</g>
<g opacity="0.82">
<path d="M779.71 902.543C773.923 904.649 768.026 899.701 769.096 893.636L778.54 840.076C779.609 834.011 786.843 831.378 791.56 835.337L833.223 870.296C837.94 874.254 836.604 881.835 830.817 883.941L779.71 902.543Z" fill="url(#paint114_linear_167_7)"/>
</g>
<g opacity="0.87">
<path d="M1051.06 864.063C1044.9 864.063 1041.05 857.396 1044.13 852.063L1074.96 798.663C1078.04 793.33 1085.74 793.33 1088.82 798.663L1119.65 852.063C1122.72 857.396 1118.88 864.063 1112.72 864.063L1051.06 864.063Z" fill="url(#paint115_linear_167_7)"/>
</g>
<g opacity="0.73">
<path d="M1127.58 878.245C1128.76 884.291 1122.95 889.341 1117.13 887.336L1065.7 869.63C1059.88 867.625 1058.41 860.068 1063.06 856.028L1104.1 820.347C1108.75 816.307 1116.03 818.813 1117.21 824.858L1127.58 878.245Z" fill="url(#paint116_linear_167_7)"/>
</g>
<g opacity="0.91">
<path d="M1351.32 913.055C1355.75 917.333 1353.89 924.803 1347.97 926.5L1314.67 936.048C1308.75 937.746 1303.21 932.398 1304.7 926.423L1313.09 892.811C1314.57 886.835 1321.97 884.714 1326.4 888.992L1351.32 913.055Z" fill="url(#paint117_linear_167_7)"/>
</g>
<g opacity="0.88">
<path d="M1503.48 915.484C1498.69 919.359 1491.51 916.6 1490.54 910.518L1484.64 873.224C1483.67 867.141 1489.66 862.297 1495.4 864.504L1530.66 878.035C1536.4 880.242 1537.61 887.846 1532.82 891.721L1503.48 915.484Z" fill="url(#paint118_linear_167_7)"/>
</g>
<g opacity="0.83">
<path d="M176.736 1054.2C182.069 1051.12 188.736 1054.97 188.736 1061.13L188.736 1098.89C188.736 1105.05 182.069 1108.9 176.736 1105.82L144.036 1086.94C138.702 1083.86 138.702 1076.16 144.036 1073.08L176.736 1054.2Z" fill="url(#paint119_linear_167_7)"/>
</g>
<g opacity="0.96">
<path d="M395.295 964.939C389.585 967.246 383.519 962.506 384.376 956.408L393.536 891.23C394.393 885.132 401.53 882.248 406.383 886.04L458.249 926.561C463.102 930.353 462.03 937.976 456.32 940.283L395.295 964.939Z" fill="url(#paint120_linear_167_7)"/>
</g>
<g opacity="0.97">
<path d="M512.311 1011.58C509.325 1006.19 513.29 999.594 519.448 999.701L594.607 1001.01C600.765 1001.12 604.497 1007.85 601.325 1013.13L562.609 1077.57C559.437 1082.85 551.74 1082.71 548.755 1077.32L512.311 1011.58Z" fill="url(#paint121_linear_167_7)"/>
</g>
<g opacity="0.88">
<path d="M710.429 1084.96C709.679 1091.07 702.593 1094.08 697.674 1090.37L644.28 1050.13C639.361 1046.43 640.3 1038.79 645.968 1036.38L707.511 1010.26C713.18 1007.85 719.327 1012.48 718.577 1018.6L710.429 1084.96Z" fill="url(#paint122_linear_167_7)"/>
</g>
<g opacity="0.81">
<path d="M897.478 931.798C891.655 929.793 890.186 922.236 894.834 918.196L967.252 855.244C971.9 851.203 979.179 853.71 980.354 859.755L998.663 953.947C999.838 959.993 994.028 965.043 988.206 963.038L897.478 931.798Z" fill="url(#paint123_linear_167_7)"/>
</g>
<g opacity="0.97">
<path d="M1170.93 981.382C1168.13 975.895 1172.33 969.438 1178.48 969.761L1260.81 974.076C1266.96 974.398 1270.45 981.257 1267.1 986.422L1222.2 1055.57C1218.84 1060.73 1211.16 1060.33 1208.36 1054.84L1170.93 981.382Z" fill="url(#paint124_linear_167_7)"/>
</g>
<g opacity="0.72">
<path d="M1461.76 1132.58C1467.92 1132.69 1471.65 1139.42 1468.48 1144.7L1419.06 1226.95C1415.89 1232.23 1408.19 1232.09 1405.2 1226.71L1358.68 1142.78C1355.7 1137.4 1359.66 1130.8 1365.82 1130.91L1461.76 1132.58Z" fill="url(#paint125_linear_167_7)"/>
</g>
<g opacity="0.92">
<path d="M1660.93 1083.72C1661.78 1077.62 1668.92 1074.74 1673.78 1078.53L1737.11 1128.01C1741.96 1131.8 1740.89 1139.42 1735.18 1141.73L1660.66 1171.84C1654.95 1174.14 1648.89 1169.4 1649.74 1163.31L1660.93 1083.72Z" fill="url(#paint126_linear_167_7)"/>
</g>
</g>
<defs>
<linearGradient id="paint0_linear_167_7" x1="73.4799" y1="22.8029" x2="139.605" y2="122.111" gradientUnits="userSpaceOnUse">
<stop stop-color="#FAE5F2" stop-opacity="0.4"/>
<stop offset="1" stop-color="#FEB6E2"/>
</linearGradient>
<linearGradient id="paint1_linear_167_7" x1="263.303" y1="40.1545" x2="308.505" y2="-37.0701" gradientUnits="userSpaceOnUse">
<stop stop-color="#FAE5F2" stop-opacity="0.4"/>
<stop offset="1" stop-color="#FEB6E2"/>
</linearGradient>
<linearGradient id="paint2_linear_167_7" x1="636.523" y1="54.0731" x2="655.465" y2="145.882" gradientUnits="userSpaceOnUse">
<stop stop-color="#FAE5F2" stop-opacity="0.4"/>
<stop offset="1" stop-color="#FEB6E2"/>
</linearGradient>
<linearGradient id="paint3_linear_167_7" x1="833.07" y1="49.7846" x2="737.525" y2="82.0463" gradientUnits="userSpaceOnUse">
<stop stop-color="#FAE5F2" stop-opacity="0.4"/>
<stop offset="1" stop-color="#FEB6E2"/>
</linearGradient>
<linearGradient id="paint4_linear_167_7" x1="978.708" y1="222.946" x2="845.028" y2="117.213" gradientUnits="userSpaceOnUse">
<stop stop-color="#FAE5F2" stop-opacity="0.4"/>
<stop offset="1" stop-color="#FEB6E2"/>
</linearGradient>
<linearGradient id="paint5_linear_167_7" x1="1391.3" y1="58.9252" x2="1286.23" y2="162.75" gradientUnits="userSpaceOnUse">
<stop stop-color="#FAE5F2" stop-opacity="0.4"/>
<stop offset="1" stop-color="#FEB6E2"/>
</linearGradient>
<linearGradient id="paint6_linear_167_7" x1="1404.63" y1="76.9015" x2="1440.29" y2="-14.3812" gradientUnits="userSpaceOnUse">
<stop stop-color="#FAE5F2" stop-opacity="0.4"/>
<stop offset="1" stop-color="#FEB6E2"/>
</linearGradient>
<linearGradient id="paint7_linear_167_7" x1="1688.33" y1="61.9234" x2="1575.47" y2="75.0974" gradientUnits="userSpaceOnUse">
<stop stop-color="#FAE5F2" stop-opacity="0.4"/>
<stop offset="1" stop-color="#FEB6E2"/>
</linearGradient>
<linearGradient id="paint8_linear_167_7" x1="151.185" y1="192.348" x2="246.322" y2="194.577" gradientUnits="userSpaceOnUse">
<stop stop-color="#FAE5F2" stop-opacity="0.4"/>
<stop offset="1" stop-color="#FEB6E2"/>
</linearGradient>
<linearGradient id="paint9_linear_167_7" x1="224.282" y1="222.741" x2="290.895" y2="147.03" gradientUnits="userSpaceOnUse">
<stop stop-color="#FAE5F2" stop-opacity="0.4"/>
<stop offset="1" stop-color="#FEB6E2"/>
</linearGradient>
<linearGradient id="paint10_linear_167_7" x1="484.757" y1="90.3776" x2="581.371" y2="73.936" gradientUnits="userSpaceOnUse">
<stop stop-color="#FAE5F2" stop-opacity="0.4"/>
<stop offset="1" stop-color="#FEB6E2"/>
</linearGradient>
<linearGradient id="paint11_linear_167_7" x1="692.494" y1="205.722" x2="792.763" y2="131.098" gradientUnits="userSpaceOnUse">
<stop stop-color="#FAE5F2" stop-opacity="0.4"/>
<stop offset="1" stop-color="#FEB6E2"/>
</linearGradient>
<linearGradient id="paint12_linear_167_7" x1="940.042" y1="187.284" x2="987.883" y2="34.082" gradientUnits="userSpaceOnUse">
<stop stop-color="#FAE5F2" stop-opacity="0.4"/>
<stop offset="1" stop-color="#FEB6E2"/>
</linearGradient>
<linearGradient id="paint13_linear_167_7" x1="1140.14" y1="259.081" x2="1202.2" y2="121.91" gradientUnits="userSpaceOnUse">
<stop stop-color="#FAE5F2" stop-opacity="0.4"/>
<stop offset="1" stop-color="#FEB6E2"/>
</linearGradient>
<linearGradient id="paint14_linear_167_7" x1="1475.65" y1="86.3708" x2="1515.18" y2="203.446" gradientUnits="userSpaceOnUse">
<stop stop-color="#FAE5F2" stop-opacity="0.4"/>
<stop offset="1" stop-color="#FEB6E2"/>
</linearGradient>
<linearGradient id="paint15_linear_167_7" x1="1564.94" y1="135.593" x2="1663.98" y2="239.378" gradientUnits="userSpaceOnUse">
<stop stop-color="#FAE5F2" stop-opacity="0.4"/>
<stop offset="1" stop-color="#FEB6E2"/>
</linearGradient>
<linearGradient id="paint16_linear_167_7" x1="290.653" y1="441.753" x2="147.777" y2="484.504" gradientUnits="userSpaceOnUse">
<stop stop-color="#FAE5F2" stop-opacity="0.4"/>
<stop offset="1" stop-color="#FEB6E2"/>
</linearGradient>
<linearGradient id="paint17_linear_167_7" x1="322.472" y1="290.4" x2="377.766" y2="357.102" gradientUnits="userSpaceOnUse">
<stop stop-color="#FAE5F2" stop-opacity="0.4"/>
<stop offset="1" stop-color="#FEB6E2"/>
</linearGradient>
<linearGradient id="paint18_linear_167_7" x1="636.229" y1="434.006" x2="486.436" y2="505.961" gradientUnits="userSpaceOnUse">
<stop stop-color="#FAE5F2" stop-opacity="0.4"/>
<stop offset="1" stop-color="#FEB6E2"/>
</linearGradient>
<linearGradient id="paint19_linear_167_7" x1="674.789" y1="266.07" x2="790.723" y2="237.899" gradientUnits="userSpaceOnUse">
<stop stop-color="#FAE5F2" stop-opacity="0.4"/>
<stop offset="1" stop-color="#FEB6E2"/>
</linearGradient>
<linearGradient id="paint20_linear_167_7" x1="904.127" y1="255.936" x2="1036.87" y2="280.16" gradientUnits="userSpaceOnUse">
<stop stop-color="#FAE5F2" stop-opacity="0.4"/>
<stop offset="1" stop-color="#FEB6E2"/>
</linearGradient>
<linearGradient id="paint21_linear_167_7" x1="1137.53" y1="334.874" x2="1290.15" y2="308.901" gradientUnits="userSpaceOnUse">
<stop stop-color="#FAE5F2" stop-opacity="0.4"/>
<stop offset="1" stop-color="#FEB6E2"/>
</linearGradient>
<linearGradient id="paint22_linear_167_7" x1="1502.41" y1="279.536" x2="1467.26" y2="369.495" gradientUnits="userSpaceOnUse">
<stop stop-color="#FAE5F2" stop-opacity="0.4"/>
<stop offset="1" stop-color="#FEB6E2"/>
</linearGradient>
<linearGradient id="paint23_linear_167_7" x1="1654.14" y1="292.944" x2="1754.33" y2="387.505" gradientUnits="userSpaceOnUse">
<stop stop-color="#FAE5F2" stop-opacity="0.4"/>
<stop offset="1" stop-color="#FEB6E2"/>
</linearGradient>
<linearGradient id="paint24_linear_167_7" x1="24.843" y1="395.47" x2="121.655" y2="351.028" gradientUnits="userSpaceOnUse">
<stop stop-color="#FAE5F2" stop-opacity="0.4"/>
<stop offset="1" stop-color="#FEB6E2"/>
</linearGradient>
<linearGradient id="paint25_linear_167_7" x1="354.487" y1="604.596" x2="243.467" y2="588.317" gradientUnits="userSpaceOnUse">
<stop stop-color="#FAE5F2" stop-opacity="0.4"/>
<stop offset="1" stop-color="#FEB6E2"/>
</linearGradient>
<linearGradient id="paint26_linear_167_7" x1="338.816" y1="489.591" x2="471.911" y2="383.122" gradientUnits="userSpaceOnUse">
<stop stop-color="#FAE5F2" stop-opacity="0.4"/>
<stop offset="1" stop-color="#FEB6E2"/>
</linearGradient>
<linearGradient id="paint27_linear_167_7" x1="610.007" y1="442.241" x2="692.281" y2="351.956" gradientUnits="userSpaceOnUse">
<stop stop-color="#FAE5F2" stop-opacity="0.4"/>
<stop offset="1" stop-color="#FEB6E2"/>
</linearGradient>
<linearGradient id="paint28_linear_167_7" x1="955.07" y1="432.88" x2="1044.4" y2="438.097" gradientUnits="userSpaceOnUse">
<stop stop-color="#FAE5F2" stop-opacity="0.4"/>
<stop offset="1" stop-color="#FEB6E2"/>
</linearGradient>
<linearGradient id="paint29_linear_167_7" x1="1181.66" y1="528.352" x2="1135.78" y2="436.958" gradientUnits="userSpaceOnUse">
<stop stop-color="#FAE5F2" stop-opacity="0.4"/>
<stop offset="1" stop-color="#FEB6E2"/>
</linearGradient>
<linearGradient id="paint30_linear_167_7" x1="1383.45" y1="579.808" x2="1240" y2="578.952" gradientUnits="userSpaceOnUse">
<stop stop-color="#FAE5F2" stop-opacity="0.4"/>
<stop offset="1" stop-color="#FEB6E2"/>
</linearGradient>
<linearGradient id="paint31_linear_167_7" x1="1599.15" y1="449.403" x2="1665.85" y2="394.109" gradientUnits="userSpaceOnUse">
<stop stop-color="#FAE5F2" stop-opacity="0.4"/>
<stop offset="1" stop-color="#FEB6E2"/>
</linearGradient>
<linearGradient id="paint32_linear_167_7" x1="-28.2062" y1="660.12" x2="-84.8193" y2="517.552" gradientUnits="userSpaceOnUse">
<stop stop-color="#FAE5F2" stop-opacity="0.4"/>
<stop offset="1" stop-color="#FEB6E2"/>
</linearGradient>
<linearGradient id="paint33_linear_167_7" x1="168.254" y1="688.772" x2="255.591" y2="560.942" gradientUnits="userSpaceOnUse">
<stop stop-color="#FAE5F2" stop-opacity="0.4"/>
<stop offset="1" stop-color="#FEB6E2"/>
</linearGradient>
<linearGradient id="paint34_linear_167_7" x1="432.058" y1="728.707" x2="332.114" y2="612.339" gradientUnits="userSpaceOnUse">
<stop stop-color="#FAE5F2" stop-opacity="0.4"/>
<stop offset="1" stop-color="#FEB6E2"/>
</linearGradient>
<linearGradient id="paint35_linear_167_7" x1="813.202" y1="603.789" x2="696.371" y2="684.56" gradientUnits="userSpaceOnUse">
<stop stop-color="#FAE5F2" stop-opacity="0.4"/>
<stop offset="1" stop-color="#FEB6E2"/>
</linearGradient>
<linearGradient id="paint36_linear_167_7" x1="963.565" y1="513.926" x2="1102.36" y2="472.396" gradientUnits="userSpaceOnUse">
<stop stop-color="#FAE5F2" stop-opacity="0.4"/>
<stop offset="1" stop-color="#FEB6E2"/>
</linearGradient>
<linearGradient id="paint37_linear_167_7" x1="1315.69" y1="770.082" x2="1162.23" y2="710.121" gradientUnits="userSpaceOnUse">
<stop stop-color="#FAE5F2" stop-opacity="0.4"/>
<stop offset="1" stop-color="#FEB6E2"/>
</linearGradient>
<linearGradient id="paint38_linear_167_7" x1="1409.17" y1="624.145" x2="1295.32" y2="729.052" gradientUnits="userSpaceOnUse">
<stop stop-color="#FAE5F2" stop-opacity="0.4"/>
<stop offset="1" stop-color="#FEB6E2"/>
</linearGradient>
<linearGradient id="paint39_linear_167_7" x1="1732.04" y1="615.791" x2="1642.19" y2="675.618" gradientUnits="userSpaceOnUse">
<stop stop-color="#FAE5F2" stop-opacity="0.4"/>
<stop offset="1" stop-color="#FEB6E2"/>
</linearGradient>
<linearGradient id="paint40_linear_167_7" x1="45.3215" y1="668.481" x2="149" y2="609.445" gradientUnits="userSpaceOnUse">
<stop stop-color="#FAE5F2" stop-opacity="0.4"/>
<stop offset="1" stop-color="#FEB6E2"/>
</linearGradient>
<linearGradient id="paint41_linear_167_7" x1="324.216" y1="852.238" x2="238.563" y2="865.28" gradientUnits="userSpaceOnUse">
<stop stop-color="#FAE5F2" stop-opacity="0.4"/>
<stop offset="1" stop-color="#FEB6E2"/>
</linearGradient>
<linearGradient id="paint42_linear_167_7" x1="561.398" y1="848.648" x2="446.903" y2="927.804" gradientUnits="userSpaceOnUse">
<stop stop-color="#FAE5F2" stop-opacity="0.4"/>
<stop offset="1" stop-color="#FEB6E2"/>
</linearGradient>
<linearGradient id="paint43_linear_167_7" x1="728.647" y1="619.471" x2="845.074" y2="651.414" gradientUnits="userSpaceOnUse">
<stop stop-color="#FAE5F2" stop-opacity="0.4"/>
<stop offset="1" stop-color="#FEB6E2"/>
</linearGradient>
<linearGradient id="paint44_linear_167_7" x1="882.026" y1="620.289" x2="1025.44" y2="623.649" gradientUnits="userSpaceOnUse">
<stop stop-color="#FAE5F2" stop-opacity="0.4"/>
<stop offset="1" stop-color="#FEB6E2"/>
</linearGradient>
<linearGradient id="paint45_linear_167_7" x1="1124.33" y1="742.447" x2="1247.84" y2="738.872" gradientUnits="userSpaceOnUse">
<stop stop-color="#FAE5F2" stop-opacity="0.4"/>
<stop offset="1" stop-color="#FEB6E2"/>
</linearGradient>
<linearGradient id="paint46_linear_167_7" x1="1270.92" y1="715.539" x2="1433.33" y2="663.839" gradientUnits="userSpaceOnUse">
<stop stop-color="#FAE5F2" stop-opacity="0.4"/>
<stop offset="1" stop-color="#FEB6E2"/>
</linearGradient>
<linearGradient id="paint47_linear_167_7" x1="1607.01" y1="763.894" x2="1614.44" y2="880.125" gradientUnits="userSpaceOnUse">
<stop stop-color="#FAE5F2" stop-opacity="0.4"/>
<stop offset="1" stop-color="#FEB6E2"/>
</linearGradient>
<linearGradient id="paint48_linear_167_7" x1="22.9545" y1="937.803" x2="96.1824" y2="838.269" gradientUnits="userSpaceOnUse">
<stop stop-color="#FAE5F2" stop-opacity="0.4"/>
<stop offset="1" stop-color="#FEB6E2"/>
</linearGradient>
<linearGradient id="paint49_linear_167_7" x1="250.703" y1="979.797" x2="264.985" y2="827.066" gradientUnits="userSpaceOnUse">
<stop stop-color="#FAE5F2" stop-opacity="0.4"/>
<stop offset="1" stop-color="#FEB6E2"/>
</linearGradient>
<linearGradient id="paint50_linear_167_7" x1="476.234" y1="915.793" x2="521.3" y2="841.795" gradientUnits="userSpaceOnUse">
<stop stop-color="#FAE5F2" stop-opacity="0.4"/>
<stop offset="1" stop-color="#FEB6E2"/>
</linearGradient>
<linearGradient id="paint51_linear_167_7" x1="801.578" y1="861.943" x2="757.234" y2="1023.57" gradientUnits="userSpaceOnUse">
<stop stop-color="#FAE5F2" stop-opacity="0.4"/>
<stop offset="1" stop-color="#FEB6E2"/>
</linearGradient>
<linearGradient id="paint52_linear_167_7" x1="857.959" y1="1003.44" x2="740.12" y2="916.741" gradientUnits="userSpaceOnUse">
<stop stop-color="#FAE5F2" stop-opacity="0.4"/>
<stop offset="1" stop-color="#FEB6E2"/>
</linearGradient>
<linearGradient id="paint53_linear_167_7" x1="1274.85" y1="836.694" x2="1268.39" y2="947.292" gradientUnits="userSpaceOnUse">
<stop stop-color="#FAE5F2" stop-opacity="0.4"/>
<stop offset="1" stop-color="#FEB6E2"/>
</linearGradient>
<linearGradient id="paint54_linear_167_7" x1="1479.24" y1="866.254" x2="1529.34" y2="961.865" gradientUnits="userSpaceOnUse">
<stop stop-color="#FAE5F2" stop-opacity="0.4"/>
<stop offset="1" stop-color="#FEB6E2"/>
</linearGradient>
<linearGradient id="paint55_linear_167_7" x1="1569.12" y1="951.455" x2="1503.42" y2="882.607" gradientUnits="userSpaceOnUse">
<stop stop-color="#FAE5F2" stop-opacity="0.4"/>
<stop offset="1" stop-color="#FEB6E2"/>
</linearGradient>
<linearGradient id="paint56_linear_167_7" x1="-10.2176" y1="1118.4" x2="-98.1315" y2="1016.04" gradientUnits="userSpaceOnUse">
<stop stop-color="#FAE5F2" stop-opacity="0.4"/>
<stop offset="1" stop-color="#FEB6E2"/>
</linearGradient>
<linearGradient id="paint57_linear_167_7" x1="232.595" y1="1114.67" x2="236.658" y2="1015.33" gradientUnits="userSpaceOnUse">
<stop stop-color="#FAE5F2" stop-opacity="0.4"/>
<stop offset="1" stop-color="#FEB6E2"/>
</linearGradient>
<linearGradient id="paint58_linear_167_7" x1="532.478" y1="1005.56" x2="541.243" y2="1113.14" gradientUnits="userSpaceOnUse">
<stop stop-color="#FAE5F2" stop-opacity="0.4"/>
<stop offset="1" stop-color="#FEB6E2"/>
</linearGradient>
<linearGradient id="paint59_linear_167_7" x1="670.121" y1="1082.85" x2="678.584" y2="992.34" gradientUnits="userSpaceOnUse">
<stop stop-color="#FAE5F2" stop-opacity="0.4"/>
<stop offset="1" stop-color="#FEB6E2"/>
</linearGradient>
<linearGradient id="paint60_linear_167_7" x1="1160.56" y1="1122.68" x2="1025.96" y2="1196.25" gradientUnits="userSpaceOnUse">
<stop stop-color="#FAE5F2" stop-opacity="0.4"/>
<stop offset="1" stop-color="#FEB6E2"/>
</linearGradient>
<linearGradient id="paint61_linear_167_7" x1="1142.75" y1="1113.5" x2="1039.69" y2="1140.45" gradientUnits="userSpaceOnUse">
<stop stop-color="#FAE5F2" stop-opacity="0.4"/>
<stop offset="1" stop-color="#FEB6E2"/>
</linearGradient>
<linearGradient id="paint62_linear_167_7" x1="1441.58" y1="1047.98" x2="1511.97" y2="997.476" gradientUnits="userSpaceOnUse">
<stop stop-color="#FAE5F2" stop-opacity="0.4"/>
<stop offset="1" stop-color="#FEB6E2"/>
</linearGradient>
<linearGradient id="paint63_linear_167_7" x1="1534.89" y1="1070.42" x2="1621.77" y2="984.562" gradientUnits="userSpaceOnUse">
<stop stop-color="#FAE5F2" stop-opacity="0.4"/>
<stop offset="1" stop-color="#FEB6E2"/>
</linearGradient>
<linearGradient id="paint64_linear_167_7" x1="167.683" y1="-63.7242" x2="270.919" y2="47.8341" gradientUnits="userSpaceOnUse">
<stop stop-color="#D6F7FE" stop-opacity="0.4"/>
<stop offset="1" stop-color="#28CEF0"/>
</linearGradient>
<linearGradient id="paint65_linear_167_7" x1="360.006" y1="-77.8309" x2="457.834" y2="-25.3346" gradientUnits="userSpaceOnUse">
<stop stop-color="#D6F7FE" stop-opacity="0.4"/>
<stop offset="1" stop-color="#28CEF0"/>
</linearGradient>
<linearGradient id="paint66_linear_167_7" x1="488.235" y1="185.894" x2="520.849" y2="66.0098" gradientUnits="userSpaceOnUse">
<stop stop-color="#D6F7FE" stop-opacity="0.4"/>
<stop offset="1" stop-color="#28CEF0"/>
</linearGradient>
<linearGradient id="paint67_linear_167_7" x1="756.459" y1="113.685" x2="644.504" y2="123.049" gradientUnits="userSpaceOnUse">
<stop stop-color="#D6F7FE" stop-opacity="0.4"/>
<stop offset="1" stop-color="#28CEF0"/>
</linearGradient>
<linearGradient id="paint68_linear_167_7" x1="1148.27" y1="-6.46597" x2="1123.94" y2="105.918" gradientUnits="userSpaceOnUse">
<stop stop-color="#D6F7FE" stop-opacity="0.4"/>
<stop offset="1" stop-color="#28CEF0"/>
</linearGradient>
<linearGradient id="paint69_linear_167_7" x1="1215.6" y1="205.215" x2="1136.6" y2="119.849" gradientUnits="userSpaceOnUse">
<stop stop-color="#D6F7FE" stop-opacity="0.4"/>
<stop offset="1" stop-color="#28CEF0"/>
</linearGradient>
<linearGradient id="paint70_linear_167_7" x1="1404.47" y1="80.2247" x2="1373.21" y2="153.104" gradientUnits="userSpaceOnUse">
<stop stop-color="#D6F7FE" stop-opacity="0.4"/>
<stop offset="1" stop-color="#28CEF0"/>
</linearGradient>
<linearGradient id="paint71_linear_167_7" x1="185.073" y1="140.899" x2="138.905" y2="289.871" gradientUnits="userSpaceOnUse">
<stop stop-color="#D6F7FE" stop-opacity="0.4"/>
<stop offset="1" stop-color="#28CEF0"/>
</linearGradient>
<linearGradient id="paint72_linear_167_7" x1="340.692" y1="217.721" x2="321.486" y2="139.417" gradientUnits="userSpaceOnUse">
<stop stop-color="#D6F7FE" stop-opacity="0.4"/>
<stop offset="1" stop-color="#28CEF0"/>
</linearGradient>
<linearGradient id="paint73_linear_167_7" x1="581.369" y1="272.721" x2="486.356" y2="267.378" gradientUnits="userSpaceOnUse">
<stop stop-color="#D6F7FE" stop-opacity="0.4"/>
<stop offset="1" stop-color="#28CEF0"/>
</linearGradient>
<linearGradient id="paint74_linear_167_7" x1="678.837" y1="150.335" x2="734.143" y2="93.5" gradientUnits="userSpaceOnUse">
<stop stop-color="#D6F7FE" stop-opacity="0.4"/>
<stop offset="1" stop-color="#28CEF0"/>
</linearGradient>
<linearGradient id="paint75_linear_167_7" x1="979.224" y1="109.569" x2="1025.33" y2="224.939" gradientUnits="userSpaceOnUse">
<stop stop-color="#D6F7FE" stop-opacity="0.4"/>
<stop offset="1" stop-color="#28CEF0"/>
</linearGradient>
<linearGradient id="paint76_linear_167_7" x1="1177.12" y1="347.769" x2="1157.52" y2="261.408" gradientUnits="userSpaceOnUse">
<stop stop-color="#D6F7FE" stop-opacity="0.4"/>
<stop offset="1" stop-color="#28CEF0"/>
</linearGradient>
<linearGradient id="paint77_linear_167_7" x1="1377.62" y1="212.198" x2="1475.31" y2="207.453" gradientUnits="userSpaceOnUse">
<stop stop-color="#D6F7FE" stop-opacity="0.4"/>
<stop offset="1" stop-color="#28CEF0"/>
</linearGradient>
<linearGradient id="paint78_linear_167_7" x1="1661.76" y1="306.869" x2="1615.8" y2="171.724" gradientUnits="userSpaceOnUse">
<stop stop-color="#D6F7FE" stop-opacity="0.4"/>
<stop offset="1" stop-color="#28CEF0"/>
</linearGradient>
<linearGradient id="paint79_linear_167_7" x1="141.065" y1="287.327" x2="284.935" y2="340.315" gradientUnits="userSpaceOnUse">
<stop stop-color="#D6F7FE" stop-opacity="0.4"/>
<stop offset="1" stop-color="#28CEF0"/>
</linearGradient>
<linearGradient id="paint80_linear_167_7" x1="395.583" y1="221.962" x2="412.128" y2="329.072" gradientUnits="userSpaceOnUse">
<stop stop-color="#D6F7FE" stop-opacity="0.4"/>
<stop offset="1" stop-color="#28CEF0"/>
</linearGradient>
<linearGradient id="paint81_linear_167_7" x1="645.534" y1="401.135" x2="508.35" y2="445.131" gradientUnits="userSpaceOnUse">
<stop stop-color="#D6F7FE" stop-opacity="0.4"/>
<stop offset="1" stop-color="#28CEF0"/>
</linearGradient>
<linearGradient id="paint82_linear_167_7" x1="824.412" y1="408.227" x2="752.515" y2="482.113" gradientUnits="userSpaceOnUse">
<stop stop-color="#D6F7FE" stop-opacity="0.4"/>
<stop offset="1" stop-color="#28CEF0"/>
</linearGradient>
<linearGradient id="paint83_linear_167_7" x1="810.544" y1="412.263" x2="874.06" y2="364.78" gradientUnits="userSpaceOnUse">
<stop stop-color="#D6F7FE" stop-opacity="0.4"/>
<stop offset="1" stop-color="#28CEF0"/>
</linearGradient>
<linearGradient id="paint84_linear_167_7" x1="1068.44" y1="314.454" x2="1148.09" y2="229.694" gradientUnits="userSpaceOnUse">
<stop stop-color="#D6F7FE" stop-opacity="0.4"/>
<stop offset="1" stop-color="#28CEF0"/>
</linearGradient>
<linearGradient id="paint85_linear_167_7" x1="1417.47" y1="385.445" x2="1458.58" y2="317.626" gradientUnits="userSpaceOnUse">
<stop stop-color="#D6F7FE" stop-opacity="0.4"/>
<stop offset="1" stop-color="#28CEF0"/>
</linearGradient>
<linearGradient id="paint86_linear_167_7" x1="1647.3" y1="430.636" x2="1515.69" y2="485.908" gradientUnits="userSpaceOnUse">
<stop stop-color="#D6F7FE" stop-opacity="0.4"/>
<stop offset="1" stop-color="#28CEF0"/>
</linearGradient>
<linearGradient id="paint87_linear_167_7" x1="209.098" y1="568.207" x2="132.515" y2="543" gradientUnits="userSpaceOnUse">
<stop stop-color="#D6F7FE" stop-opacity="0.4"/>
<stop offset="1" stop-color="#28CEF0"/>
</linearGradient>
<linearGradient id="paint88_linear_167_7" x1="304.205" y1="504.112" x2="365.254" y2="451.45" gradientUnits="userSpaceOnUse">
<stop stop-color="#D6F7FE" stop-opacity="0.4"/>
<stop offset="1" stop-color="#28CEF0"/>
</linearGradient>
<linearGradient id="paint89_linear_167_7" x1="466.994" y1="499.354" x2="559.374" y2="450.687" gradientUnits="userSpaceOnUse">
<stop stop-color="#D6F7FE" stop-opacity="0.4"/>
<stop offset="1" stop-color="#28CEF0"/>
</linearGradient>
<linearGradient id="paint90_linear_167_7" x1="738.213" y1="600.688" x2="738.748" y2="460.588" gradientUnits="userSpaceOnUse">
<stop stop-color="#D6F7FE" stop-opacity="0.4"/>
<stop offset="1" stop-color="#28CEF0"/>
</linearGradient>
<linearGradient id="paint91_linear_167_7" x1="1213.63" y1="514.77" x2="1110.45" y2="624.573" gradientUnits="userSpaceOnUse">
<stop stop-color="#D6F7FE" stop-opacity="0.4"/>
<stop offset="1" stop-color="#28CEF0"/>
</linearGradient>
<linearGradient id="paint92_linear_167_7" x1="1195.37" y1="531.323" x2="1105.87" y2="570.763" gradientUnits="userSpaceOnUse">
<stop stop-color="#D6F7FE" stop-opacity="0.4"/>
<stop offset="1" stop-color="#28CEF0"/>
</linearGradient>
<linearGradient id="paint93_linear_167_7" x1="1526.41" y1="506.634" x2="1492.25" y2="582.573" gradientUnits="userSpaceOnUse">
<stop stop-color="#D6F7FE" stop-opacity="0.4"/>
<stop offset="1" stop-color="#28CEF0"/>
</linearGradient>
<linearGradient id="paint94_linear_167_7" x1="1767.91" y1="530.152" x2="1651.49" y2="513.336" gradientUnits="userSpaceOnUse">
<stop stop-color="#D6F7FE" stop-opacity="0.4"/>
<stop offset="1" stop-color="#28CEF0"/>
</linearGradient>
<linearGradient id="paint95_linear_167_7" x1="121.47" y1="714.886" x2="-27.8819" y2="714.316" gradientUnits="userSpaceOnUse">
<stop stop-color="#D6F7FE" stop-opacity="0.4"/>
<stop offset="1" stop-color="#28CEF0"/>
</linearGradient>
<linearGradient id="paint96_linear_167_7" x1="282.212" y1="742.103" x2="299.275" y2="663.305" gradientUnits="userSpaceOnUse">
<stop stop-color="#D6F7FE" stop-opacity="0.4"/>
<stop offset="1" stop-color="#28CEF0"/>
</linearGradient>
<linearGradient id="paint97_linear_167_7" x1="486.694" y1="574.817" x2="589.387" y2="549.629" gradientUnits="userSpaceOnUse">
<stop stop-color="#D6F7FE" stop-opacity="0.4"/>
<stop offset="1" stop-color="#28CEF0"/>
</linearGradient>
<linearGradient id="paint98_linear_167_7" x1="692.069" y1="490.88" x2="820.191" y2="523.344" gradientUnits="userSpaceOnUse">
<stop stop-color="#D6F7FE" stop-opacity="0.4"/>
<stop offset="1" stop-color="#28CEF0"/>
</linearGradient>
<linearGradient id="paint99_linear_167_7" x1="1044.63" y1="693.577" x2="931.252" y2="613.543" gradientUnits="userSpaceOnUse">
<stop stop-color="#D6F7FE" stop-opacity="0.4"/>
<stop offset="1" stop-color="#28CEF0"/>
</linearGradient>
<linearGradient id="paint100_linear_167_7" x1="1197.43" y1="465.458" x2="1267.05" y2="577.812" gradientUnits="userSpaceOnUse">
<stop stop-color="#D6F7FE" stop-opacity="0.4"/>
<stop offset="1" stop-color="#28CEF0"/>
</linearGradient>
<linearGradient id="paint101_linear_167_7" x1="1496.91" y1="728.564" x2="1410.19" y2="719.115" gradientUnits="userSpaceOnUse">
<stop stop-color="#D6F7FE" stop-opacity="0.4"/>
<stop offset="1" stop-color="#28CEF0"/>
</linearGradient>
<linearGradient id="paint102_linear_167_7" x1="1596.76" y1="584.502" x2="1609.27" y2="665.488" gradientUnits="userSpaceOnUse">
<stop stop-color="#D6F7FE" stop-opacity="0.4"/>
<stop offset="1" stop-color="#28CEF0"/>
</linearGradient>
<linearGradient id="paint103_linear_167_7" x1="101.593" y1="686.145" x2="90.1389" y2="791.26" gradientUnits="userSpaceOnUse">
<stop stop-color="#D6F7FE" stop-opacity="0.4"/>
<stop offset="1" stop-color="#28CEF0"/>
</linearGradient>
<linearGradient id="paint104_linear_167_7" x1="431.449" y1="807.667" x2="380.38" y2="880.012" gradientUnits="userSpaceOnUse">
<stop stop-color="#D6F7FE" stop-opacity="0.4"/>
<stop offset="1" stop-color="#28CEF0"/>
</linearGradient>
<linearGradient id="paint105_linear_167_7" x1="434.665" y1="740.682" x2="531.626" y2="701.937" gradientUnits="userSpaceOnUse">
<stop stop-color="#D6F7FE" stop-opacity="0.4"/>
<stop offset="1" stop-color="#28CEF0"/>
</linearGradient>
<linearGradient id="paint106_linear_167_7" x1="612.178" y1="842.135" x2="683.867" y2="757.359" gradientUnits="userSpaceOnUse">
<stop stop-color="#D6F7FE" stop-opacity="0.4"/>
<stop offset="1" stop-color="#28CEF0"/>
</linearGradient>
<linearGradient id="paint107_linear_167_7" x1="1029.63" y1="806.601" x2="882.842" y2="850.867" gradientUnits="userSpaceOnUse">
<stop stop-color="#D6F7FE" stop-opacity="0.4"/>
<stop offset="1" stop-color="#28CEF0"/>
</linearGradient>
<linearGradient id="paint108_linear_167_7" x1="1244.26" y1="678.571" x2="1339.41" y2="781.398" gradientUnits="userSpaceOnUse">
<stop stop-color="#D6F7FE" stop-opacity="0.4"/>
<stop offset="1" stop-color="#28CEF0"/>
</linearGradient>
<linearGradient id="paint109_linear_167_7" x1="1372.37" y1="728.942" x2="1499.24" y2="727.212" gradientUnits="userSpaceOnUse">
<stop stop-color="#D6F7FE" stop-opacity="0.4"/>
<stop offset="1" stop-color="#28CEF0"/>
</linearGradient>
<linearGradient id="paint110_linear_167_7" x1="1457.37" y1="786.257" x2="1595.42" y2="716.578" gradientUnits="userSpaceOnUse">
<stop stop-color="#D6F7FE" stop-opacity="0.4"/>
<stop offset="1" stop-color="#28CEF0"/>
</linearGradient>
<linearGradient id="paint111_linear_167_7" x1="-7.03737" y1="945.049" x2="119.923" y2="866.388" gradientUnits="userSpaceOnUse">
<stop stop-color="#D6F7FE" stop-opacity="0.4"/>
<stop offset="1" stop-color="#28CEF0"/>
</linearGradient>
<linearGradient id="paint112_linear_167_7" x1="289.857" y1="1026.58" x2="323.793" y2="929.231" gradientUnits="userSpaceOnUse">
<stop stop-color="#D6F7FE" stop-opacity="0.4"/>
<stop offset="1" stop-color="#28CEF0"/>
</linearGradient>
<linearGradient id="paint113_linear_167_7" x1="513.253" y1="998.401" x2="439.17" y2="949.888" gradientUnits="userSpaceOnUse">
<stop stop-color="#D6F7FE" stop-opacity="0.4"/>
<stop offset="1" stop-color="#28CEF0"/>
</linearGradient>
<linearGradient id="paint114_linear_167_7" x1="746.781" y1="857.267" x2="847.534" y2="884.676" gradientUnits="userSpaceOnUse">
<stop stop-color="#D6F7FE" stop-opacity="0.4"/>
<stop offset="1" stop-color="#28CEF0"/>
</linearGradient>
<linearGradient id="paint115_linear_167_7" x1="1035.46" y1="805.487" x2="1128.32" y2="871.039" gradientUnits="userSpaceOnUse">
<stop stop-color="#D6F7FE" stop-opacity="0.4"/>
<stop offset="1" stop-color="#28CEF0"/>
</linearGradient>
<linearGradient id="paint116_linear_167_7" x1="1077.71" y1="903.687" x2="1120.55" y2="808.461" gradientUnits="userSpaceOnUse">
<stop stop-color="#D6F7FE" stop-opacity="0.4"/>
<stop offset="1" stop-color="#28CEF0"/>
</linearGradient>
<linearGradient id="paint117_linear_167_7" x1="1333.78" y1="952.923" x2="1318.94" y2="875.02" gradientUnits="userSpaceOnUse">
<stop stop-color="#D6F7FE" stop-opacity="0.4"/>
<stop offset="1" stop-color="#28CEF0"/>
</linearGradient>
<linearGradient id="paint118_linear_167_7" x1="1464.71" y1="891.66" x2="1547.8" y2="886.169" gradientUnits="userSpaceOnUse">
<stop stop-color="#D6F7FE" stop-opacity="0.4"/>
<stop offset="1" stop-color="#28CEF0"/>
</linearGradient>
<linearGradient id="paint119_linear_167_7" x1="211.297" y1="1083.8" x2="128.374" y2="1076.22" gradientUnits="userSpaceOnUse">
<stop stop-color="#D6F7FE" stop-opacity="0.4"/>
<stop offset="1" stop-color="#28CEF0"/>
</linearGradient>
<linearGradient id="paint120_linear_167_7" x1="357.792" y1="913.976" x2="473.594" y2="941.177" gradientUnits="userSpaceOnUse">
<stop stop-color="#D6F7FE" stop-opacity="0.4"/>
<stop offset="1" stop-color="#28CEF0"/>
</linearGradient>
<linearGradient id="paint121_linear_167_7" x1="563.596" y1="965.013" x2="549.422" y2="1095.09" gradientUnits="userSpaceOnUse">
<stop stop-color="#D6F7FE" stop-opacity="0.4"/>
<stop offset="1" stop-color="#28CEF0"/>
</linearGradient>
<linearGradient id="paint122_linear_167_7" x1="646.996" y1="1092.99" x2="727.817" y2="1003.91" gradientUnits="userSpaceOnUse">
<stop stop-color="#D6F7FE" stop-opacity="0.4"/>
<stop offset="1" stop-color="#28CEF0"/>
</linearGradient>
<linearGradient id="paint123_linear_167_7" x1="908.483" y1="849.865" x2="1000.45" y2="977.462" gradientUnits="userSpaceOnUse">
<stop stop-color="#D6F7FE" stop-opacity="0.4"/>
<stop offset="1" stop-color="#28CEF0"/>
</linearGradient>
<linearGradient id="paint124_linear_167_7" x1="1227.99" y1="934.343" x2="1207.96" y2="1073.01" gradientUnits="userSpaceOnUse">
<stop stop-color="#D6F7FE" stop-opacity="0.4"/>
<stop offset="1" stop-color="#28CEF0"/>
</linearGradient>
<linearGradient id="paint125_linear_167_7" x1="1476.61" y1="1213.91" x2="1349.72" y2="1120.97" gradientUnits="userSpaceOnUse">
<stop stop-color="#D6F7FE" stop-opacity="0.4"/>
<stop offset="1" stop-color="#28CEF0"/>
</linearGradient>
<linearGradient id="paint126_linear_167_7" x1="1733.3" y1="1077.77" x2="1639.17" y2="1177.94" gradientUnits="userSpaceOnUse">
<stop stop-color="#D6F7FE" stop-opacity="0.4"/>
<stop offset="1" stop-color="#28CEF0"/>
</linearGradient>
<clipPath id="clip0_167_7">
<rect width="1728" height="1117" fill="white"/>
</clipPath>
</defs>
</svg>
