<svg width="87" height="77" viewBox="0 0 87 77" fill="none" xmlns="http://www.w3.org/2000/svg">
<path d="M17.1208 1.34645L1.12084 19.1454C0.620843 20.1454 1.75825 21.3464 2.95825 21.3464C4.15825 21.3464 14.1208 9.63029 19.6209 3.64541C20.8146 2.34646 19.1208 0.146451 17.1208 1.34645Z" fill="#3A3845"/>
<path d="M17.4583 50.3464C22.2583 51.5464 23.9542 51.6454 24.1208 51.1454C23.027 51.1454 21.5923 49.3649 20.1208 46.8472C19.402 48.0139 18.3634 47.4174 17.1208 46.6454C16.2687 46.116 13.1459 38.6742 11.9583 34.3464C10.3583 34.3464 9.45826 33.3464 8.12086 35.1454C3.95826 40.7448 11.9542 51.3121 16.1208 55.1454C15.3208 53.1454 16.6249 50.8464 17.4583 50.3464Z" fill="#7071A9"/>
<path fill-rule="evenodd" clip-rule="evenodd" d="M32.9583 9.84644C24.9583 11.0464 21.9583 14.4049 20.9583 15.53C19.3319 17.3596 15.9583 20.53 14.9583 24.03C15.2956 31.731 15.6208 34.3465 17.1208 35.8464C17.6208 27.6454 24.7957 30.5299 25.9583 33.53C26.6732 35.3747 24.9583 40.8464 17.9583 37.3464C18.4583 43.8464 33.4583 57.63 33.4583 60.03C41.3208 69.0573 46.8337 71.389 49.9583 71.3464C51.1256 71.3305 51.9596 70.9833 52.4583 70.53C48.4583 70.13 47.4583 64.3633 47.4583 61.53C57.0583 65.13 63.1249 60.03 64.9583 57.03C62.1583 57.03 62.7916 53.6966 63.4583 52.03C69.4583 52.03 70.9583 48.53 72.4583 49.53C74.8583 47.93 70.2916 41.1966 67.4583 38.53C66.4583 37.03 66.4583 36.53 68.4583 37.53C70.4583 39.13 72.9583 40.8633 73.9583 41.53C74.4583 40.0299 72.7583 37.73 73.9583 38.53C75.1583 39.33 74.2957 35.7309 75.9583 38.53C77.4849 35.4767 71.9583 32.03 68.4583 30.53C65.6583 29.33 61.6249 25.03 59.9583 23.03L47.4583 16.03C43.1851 14.9643 34.0595 11.6931 32.9583 9.84644ZM25.4583 26.5299C23.0583 28.016 24.7916 29.8158 25.9583 30.5299C26.6249 30.5299 28.0583 30.3299 28.4583 29.5299C28.9583 28.5299 28.4583 24.6723 25.4583 26.5299Z" fill="#7071A9"/>
<path d="M37.6208 3.14543C34.8208 2.74543 33.7875 6.31209 33.6208 8.14543C37.2875 8.97875 44.9583 12.3464 46.9583 13.8464C47.6249 14.513 48.2583 14.83 47.4583 16.03L59.9583 23.03C60.7583 19.83 55.7875 14.8121 53.6208 12.6454C54.4208 11.4454 56.9542 10.8121 58.1208 10.6454C56.9208 9.44541 54.6208 10.1454 53.6208 10.6454C47.1208 6.14541 41.1208 3.64543 37.6208 3.14543Z" fill="#7071A9"/>
<path d="M25.9583 30.5299C24.7916 29.8158 23.0583 28.016 25.4583 26.5299C28.4583 24.6723 28.9583 28.5299 28.4583 29.5299C28.0583 30.3299 26.6249 30.5299 25.9583 30.5299Z" fill="#9CA2C9"/>
<path d="M24.1208 51.1454C27.3208 54.7454 31.9583 58.53 33.4583 60.03C33.4583 57.63 18.4583 43.8464 17.9583 37.3464C24.9583 40.8464 26.6732 35.3747 25.9583 33.53C24.7957 30.5299 17.6208 27.6454 17.1208 35.8464C15.6208 34.3465 15.2956 31.731 14.9583 24.03C13.4583 27.03 13.4815 31.2495 14.1208 33.6454C16.2472 37.6583 19.4223 45.272 20.1208 46.8472C21.5923 49.3649 23.027 51.1454 24.1208 51.1454Z" fill="#B3B7DB"/>
<path d="M14.1208 33.6454C12.8298 33.2634 13.0117 33.5871 11.9583 34.3464C13.1459 38.6742 16.2687 46.116 17.1208 46.6454C18.3634 47.4174 19.402 48.0139 20.1208 46.8472C19.4223 45.272 16.2472 37.6583 14.1208 33.6454Z" fill="#2C171E"/>
<path d="M33.6208 8.14543C32.7355 8.7331 32.8713 8.88054 32.9583 9.84644C34.0595 11.6931 43.1851 14.9643 47.4583 16.03C48.2583 14.83 47.6249 14.513 46.9583 13.8464C44.9583 12.3464 37.2875 8.97875 33.6208 8.14543Z" fill="#2C171E"/>
<path d="M75.1208 68.2716C72.6125 66.4314 69.236 65.3773 69.1209 64.6454L63.7022 69.0788C64.4238 68.8283 69.0508 71.6362 73.1208 73.3445C76.3208 71.5038 75.7875 69.1956 75.1208 68.2716Z" fill="#F4ECE7"/>
<path d="M84.1209 58.4335C82.9677 56.7773 81.3461 54.722 79.1209 52.1454L75.1208 58.1454C76.3641 59.6218 78.274 61.7213 80.1209 63.4204C84.1209 63.6404 84.4542 60.1875 84.1209 58.4335Z" fill="#F4ECE7"/>
<path d="M79.1209 74.1454C80.4494 72.8168 77.9655 70.3587 75.1208 68.2716C75.7875 69.1956 76.3208 71.5038 73.1208 73.3445C75.7616 74.4529 78.1678 75.0984 79.1209 74.1454Z" fill="#000105"/>
<path d="M85.1209 66.1454C86.6524 64.9967 87.8907 63.8481 84.1209 58.4335C84.4542 60.1875 84.1209 63.6404 80.1209 63.4204C82.2352 65.3656 84.2668 66.7859 85.1209 66.1454Z" fill="#000105"/>
<path d="M75.9583 38.53C74.2957 35.7309 75.1583 39.33 73.9583 38.53C72.7583 37.73 74.4583 40.0299 73.9583 41.53C72.9583 40.8633 70.4583 39.13 68.4583 37.53C66.4583 36.53 66.4583 37.03 67.4583 38.53C70.2916 41.1966 74.8583 47.93 72.4583 49.53C70.9583 48.53 69.4583 52.03 63.4583 52.03C62.7916 53.6966 62.1583 57.03 64.9583 57.03C63.1249 60.03 57.0583 65.13 47.4583 61.53C47.4583 64.3633 48.4583 70.13 52.4583 70.53C51.9596 70.9833 51.1256 71.3305 49.9583 71.3464C50.7879 72.7064 52.1209 75.1454 52.6209 75.6454C53.0834 76.1608 54.0398 76.0508 55.1209 75.6454C59.1208 74.1454 63.1209 70.1454 63.6209 69.1454C63.6365 69.1141 63.6638 69.0922 63.7022 69.0788L69.1209 64.6454C68.9282 63.4204 72.6208 60.1454 75.1208 58.1454L79.1209 52.1454C79.9542 50.8121 83.2209 46.4454 83.6209 45.6454C84.0209 44.8454 83.4542 43.4787 83.1209 43.1454C80.1213 40.589 79.1927 39.9473 75.9583 38.53Z" fill="#F9F8FD"/>
<path d="M32.9583 9.84644C24.9583 11.0464 21.9583 14.4049 20.9583 15.53C19.3319 17.3596 15.9583 20.53 14.9583 24.03M32.9583 9.84644C32.8713 8.88054 32.7355 8.7331 33.6208 8.14543M32.9583 9.84644C34.0595 11.6931 43.1851 14.9643 47.4583 16.03M33.6208 8.14543C33.7875 6.31209 34.8208 2.74543 37.6208 3.14543C41.1208 3.64543 47.1208 6.14541 53.6208 10.6454C54.6208 10.1454 56.9208 9.44541 58.1208 10.6454C56.9542 10.8121 54.4208 11.4454 53.6208 12.6454C55.7875 14.8121 60.7583 19.83 59.9583 23.03M33.6208 8.14543C37.2875 8.97875 44.9583 12.3464 46.9583 13.8464C47.6249 14.513 48.2583 14.83 47.4583 16.03M59.9583 23.03C61.6249 25.03 65.6583 29.33 68.4583 30.53C71.9583 32.03 77.4849 35.4767 75.9583 38.53M59.9583 23.03L47.4583 16.03M75.9583 38.53C74.2957 35.7309 75.1583 39.33 73.9583 38.53C72.7583 37.73 74.4583 40.0299 73.9583 41.53C72.9583 40.8633 70.4583 39.13 68.4583 37.53C66.4583 36.53 66.4583 37.03 67.4583 38.53C70.2916 41.1966 74.8583 47.93 72.4583 49.53C70.9583 48.53 69.4583 52.03 63.4583 52.03C62.7916 53.6966 62.1583 57.03 64.9583 57.03C63.1249 60.03 57.0583 65.13 47.4583 61.53C47.4583 64.3633 48.4583 70.13 52.4583 70.53C51.9596 70.9833 51.1256 71.3305 49.9583 71.3464M75.9583 38.53C79.1927 39.9473 80.1213 40.589 83.1209 43.1454C83.4542 43.4787 84.0209 44.8454 83.6209 45.6454C83.2209 46.4454 79.9542 50.8121 79.1209 52.1454M33.4583 60.03C31.9583 58.53 27.3208 54.7454 24.1208 51.1454M33.4583 60.03C33.4583 57.63 18.4583 43.8464 17.9583 37.3464C24.9583 40.8464 26.6732 35.3747 25.9583 33.53C24.7957 30.5299 17.6208 27.6454 17.1208 35.8464C15.6208 34.3465 15.2956 31.731 14.9583 24.03M33.4583 60.03C41.3208 69.0573 46.8337 71.389 49.9583 71.3464M24.1208 51.1454C23.9542 51.6454 22.2583 51.5464 17.4583 50.3464C16.6249 50.8464 15.3208 53.1454 16.1208 55.1454C11.9542 51.3121 3.95826 40.7448 8.12086 35.1454C9.45826 33.3464 10.3583 34.3464 11.9583 34.3464M24.1208 51.1454C23.027 51.1454 21.5923 49.3649 20.1208 46.8472M11.9583 34.3464C13.0117 33.5871 12.8298 33.2634 14.1208 33.6454M11.9583 34.3464C13.1459 38.6742 16.2687 46.116 17.1208 46.6454C18.3634 47.4174 19.402 48.0139 20.1208 46.8472M14.1208 33.6454C16.2472 37.6583 19.4223 45.272 20.1208 46.8472M14.1208 33.6454C13.4815 31.2495 13.4583 27.03 14.9583 24.03M63.6209 69.1454C63.1209 70.1454 59.1208 74.1454 55.1209 75.6454C54.0398 76.0508 53.0834 76.1608 52.6209 75.6454C52.1209 75.1454 50.7879 72.7064 49.9583 71.3464M63.6209 69.1454C63.6365 69.1141 63.6638 69.0922 63.7022 69.0788M63.6209 69.1454L63.7022 69.0788M69.1209 64.6454C68.9282 63.4204 72.6208 60.1454 75.1208 58.1454M69.1209 64.6454C69.236 65.3773 72.6125 66.4314 75.1208 68.2716M69.1209 64.6454L63.7022 69.0788M75.1208 58.1454C76.3641 59.6218 78.274 61.7213 80.1209 63.4204M75.1208 58.1454L79.1209 52.1454M79.1209 52.1454C81.3461 54.722 82.9677 56.7773 84.1209 58.4335M75.1208 68.2716C77.9655 70.3587 80.4494 72.8168 79.1209 74.1454C78.1678 75.0984 75.7616 74.4529 73.1208 73.3445M75.1208 68.2716C75.7875 69.1956 76.3208 71.5038 73.1208 73.3445M73.1208 73.3445C69.0508 71.6362 64.4238 68.8283 63.7022 69.0788M84.1209 58.4335C87.8907 63.8481 86.6524 64.9967 85.1209 66.1454C84.2668 66.7859 82.2352 65.3656 80.1209 63.4204M84.1209 58.4335C84.4542 60.1875 84.1209 63.6404 80.1209 63.4204M17.1208 1.34645L1.12084 19.1454C0.620843 20.1454 1.75825 21.3464 2.95825 21.3464C4.15825 21.3464 14.1208 9.63029 19.6209 3.64541C20.8146 2.34646 19.1208 0.146451 17.1208 1.34645ZM25.9583 30.5299C24.7916 29.8158 23.0583 28.016 25.4583 26.5299C28.4583 24.6723 28.9583 28.5299 28.4583 29.5299C28.0583 30.3299 26.6249 30.5299 25.9583 30.5299Z" stroke="black" stroke-width="0.3"/>
</svg>
