<svg width="87" height="76" viewBox="0 0 87 76" fill="none" xmlns="http://www.w3.org/2000/svg">
<path d="M16.6626 1.00002L0.662591 18.799C0.162591 19.799 1.3 21 2.5 21C3.7 21 13.6626 9.28386 19.1626 3.29897C20.3563 2.00002 18.6626 -0.199985 16.6626 1.00002Z" fill="#3A3845"/>
<path d="M17 49.9999C21.8 51.1999 23.4959 51.299 23.6626 50.799C22.5687 50.799 21.134 49.0185 19.6626 46.5008C18.9438 47.6675 17.9051 47.0709 16.6626 46.299C15.8105 45.7696 12.6876 38.3278 11.5 33.9999C9.90001 33.9999 9.00001 32.9999 7.6626 34.799C3.50001 40.3984 11.4959 50.9656 15.6626 54.799C14.8626 52.799 16.1667 50.4999 17 49.9999Z" fill="#7071A9"/>
<path fill-rule="evenodd" clip-rule="evenodd" d="M32.5 9.5C24.5 10.7 21.5 14.0585 20.5 15.1835C18.8736 17.0132 15.5 20.1835 14.5 23.6835C14.8374 31.3846 15.1626 34 16.6626 35.5C17.1626 27.299 24.3374 30.1835 25.5 33.1835C26.2149 35.0283 24.5 40.5 17.5 37C18 43.5 33 57.2835 33 59.6835C40.8626 68.7109 46.3754 71.0425 49.5 71C50.6674 70.9841 51.5014 70.6368 52 70.1835C48 69.7835 47 64.0169 47 61.1835C56.6 64.7835 62.6667 59.6835 64.5 56.6835C61.7 56.6835 62.3333 53.3502 63 51.6835C69 51.6835 70.5 48.1835 72 49.1835C74.4 47.5835 69.8333 40.8502 67 38.1835C66 36.6835 66 36.1835 68 37.1835C70 38.7835 72.5 40.5169 73.5 41.1835C74 39.6835 72.3 37.3835 73.5 38.1835C74.7 38.9835 73.8374 35.3845 75.5 38.1835C77.0266 35.1303 71.5 31.6835 68 30.1835C65.2 28.9835 61.1667 24.6835 59.5 22.6835L47 15.6835C42.7268 14.6178 33.6012 11.3467 32.5 9.5ZM25 26.1835C22.6 27.6696 24.3334 29.4694 25.5 30.1835C26.1667 30.1835 27.6 29.9835 28 29.1835C28.5 28.1835 28 24.3259 25 26.1835Z" fill="#7071A9"/>
<path d="M37.1626 2.79899C34.3626 2.39899 33.3293 5.96566 33.1626 7.79899C36.8293 8.63232 44.5 11.9999 46.5 13.4999C47.1667 14.1666 47.8 14.4836 47 15.6835L59.5 22.6835C60.3 19.4835 55.3293 14.4656 53.1626 12.299C53.9626 11.099 56.4959 10.4656 57.6626 10.299C56.4626 9.09897 54.1626 9.79897 53.1626 10.299C46.6626 5.79897 40.6626 3.29899 37.1626 2.79899Z" fill="#7071A9"/>
<path d="M25.5 30.1835C24.3334 29.4694 22.6 27.6696 25 26.1835C28 24.3259 28.5 28.1835 28 29.1835C27.6 29.9835 26.1667 30.1835 25.5 30.1835Z" fill="#9CA2C9"/>
<path d="M23.6626 50.799C26.8626 54.399 31.5 58.1835 33 59.6835C33 57.2835 18 43.5 17.5 37C24.5 40.5 26.2149 35.0283 25.5 33.1835C24.3374 30.1835 17.1626 27.299 16.6626 35.5C15.1626 34 14.8374 31.3846 14.5 23.6835C13 26.6835 13.0233 30.9031 13.6626 33.299C15.7889 37.3118 18.9641 44.9256 19.6626 46.5008C21.134 49.0185 22.5687 50.799 23.6626 50.799Z" fill="#B3B7DB"/>
<path d="M13.6626 33.299C12.3715 32.9169 12.5534 33.2407 11.5 33.9999C12.6876 38.3278 15.8105 45.7696 16.6626 46.299C17.9051 47.0709 18.9438 47.6675 19.6626 46.5008C18.9641 44.9256 15.7889 37.3118 13.6626 33.299Z" fill="#2C171E"/>
<path d="M33.1626 7.79899C32.2773 8.38666 32.4131 8.5341 32.5 9.5C33.6012 11.3467 42.7268 14.6178 47 15.6835C47.8 14.4836 47.1667 14.1666 46.5 13.4999C44.5 11.9999 36.8293 8.63232 33.1626 7.79899Z" fill="#2C171E"/>
<path d="M74.6626 67.9252C72.1543 66.0849 68.7777 65.0309 68.6626 64.2989L63.2439 68.7324C63.9656 68.4818 68.5925 71.2897 72.6626 72.9981C75.8626 71.1573 75.3292 68.8492 74.6626 67.9252Z" fill="#F4ECE7"/>
<path d="M83.6626 58.0871C82.5095 56.4309 80.8878 54.3755 78.6626 51.799L74.6626 57.7989C75.9059 59.2754 77.8158 61.3749 79.6626 63.074C83.6626 63.294 83.9959 59.841 83.6626 58.0871Z" fill="#F4ECE7"/>
<path d="M78.6626 73.7989C79.9911 72.4704 77.5072 70.0122 74.6626 67.9252C75.3292 68.8492 75.8626 71.1573 72.6626 72.9981C75.3033 74.1065 77.7096 74.752 78.6626 73.7989Z" fill="#000105"/>
<path d="M84.6626 65.7989C86.1941 64.6503 87.4325 63.5017 83.6626 58.0871C83.9959 59.841 83.6626 63.294 79.6626 63.074C81.7769 65.0192 83.8086 66.4395 84.6626 65.7989Z" fill="#000105"/>
<path d="M32.5 9.5C24.5 10.7 21.5 14.0585 20.5 15.1835C18.8736 17.0132 15.5 20.1835 14.5 23.6835M32.5 9.5C32.4131 8.5341 32.2773 8.38666 33.1626 7.79899M32.5 9.5C33.6012 11.3467 42.7268 14.6178 47 15.6835M33.1626 7.79899C33.3293 5.96566 34.3626 2.39899 37.1626 2.79899C40.6626 3.29899 46.6626 5.79897 53.1626 10.299C54.1626 9.79897 56.4626 9.09897 57.6626 10.299C56.4959 10.4656 53.9626 11.099 53.1626 12.299C55.3293 14.4656 60.3 19.4835 59.5 22.6835M33.1626 7.79899C36.8293 8.63232 44.5 11.9999 46.5 13.4999C47.1667 14.1666 47.8 14.4836 47 15.6835M59.5 22.6835C61.1667 24.6835 65.2 28.9835 68 30.1835C71.5 31.6835 77.0266 35.1303 75.5 38.1835M59.5 22.6835L47 15.6835M75.5 38.1835C73.8374 35.3845 74.7 38.9835 73.5 38.1835C72.3 37.3835 74 39.6835 73.5 41.1835C72.5 40.5169 70 38.7835 68 37.1835C66 36.1835 66 36.6835 67 38.1835C69.8333 40.8502 74.4 47.5835 72 49.1835C70.5 48.1835 69 51.6835 63 51.6835C62.3333 53.3502 61.7 56.6835 64.5 56.6835C62.6667 59.6835 56.6 64.7835 47 61.1835C47 64.0169 48 69.7835 52 70.1835C51.5014 70.6368 50.6674 70.9841 49.5 71M75.5 38.1835C78.7345 39.6009 79.663 40.2425 82.6626 42.7989C82.9959 43.1323 83.5626 44.4989 83.1626 45.2989C82.7626 46.0989 79.4959 50.4656 78.6626 51.799M33 59.6835C31.5 58.1835 26.8626 54.399 23.6626 50.799M33 59.6835C33 57.2835 18 43.5 17.5 37C24.5 40.5 26.2149 35.0283 25.5 33.1835C24.3374 30.1835 17.1626 27.299 16.6626 35.5C15.1626 34 14.8374 31.3846 14.5 23.6835M33 59.6835C40.8626 68.7109 46.3754 71.0425 49.5 71M23.6626 50.799C23.4959 51.299 21.8 51.1999 17 49.9999C16.1667 50.4999 14.8626 52.799 15.6626 54.799C11.4959 50.9656 3.50001 40.3984 7.6626 34.799C9.00001 32.9999 9.90001 33.9999 11.5 33.9999M23.6626 50.799C22.5687 50.799 21.134 49.0185 19.6626 46.5008M11.5 33.9999C12.5534 33.2407 12.3715 32.9169 13.6626 33.299M11.5 33.9999C12.6876 38.3278 15.8105 45.7696 16.6626 46.299C17.9051 47.0709 18.9438 47.6675 19.6626 46.5008M13.6626 33.299C15.7889 37.3118 18.9641 44.9256 19.6626 46.5008M13.6626 33.299C13.0233 30.9031 13 26.6835 14.5 23.6835M63.1626 68.7989C62.6626 69.7989 58.6626 73.7989 54.6626 75.2989C53.5816 75.7043 52.6252 75.8143 52.1626 75.2989C51.6626 74.7989 50.3296 72.3599 49.5 71M63.1626 68.7989C63.1782 68.7677 63.2056 68.7457 63.2439 68.7324M63.1626 68.7989L63.2439 68.7324M68.6626 64.2989C68.47 63.074 72.1626 59.7989 74.6626 57.7989M68.6626 64.2989C68.7777 65.0309 72.1543 66.0849 74.6626 67.9252M68.6626 64.2989L63.2439 68.7324M74.6626 57.7989C75.9059 59.2754 77.8158 61.3749 79.6626 63.074M74.6626 57.7989L78.6626 51.799M78.6626 51.799C80.8878 54.3755 82.5095 56.4309 83.6626 58.0871M74.6626 67.9252C77.5072 70.0122 79.9911 72.4704 78.6626 73.7989C77.7096 74.752 75.3033 74.1065 72.6626 72.9981M74.6626 67.9252C75.3292 68.8492 75.8626 71.1573 72.6626 72.9981M72.6626 72.9981C68.5925 71.2897 63.9656 68.4818 63.2439 68.7324M83.6626 58.0871C87.4325 63.5017 86.1941 64.6503 84.6626 65.7989C83.8086 66.4395 81.7769 65.0192 79.6626 63.074M83.6626 58.0871C83.9959 59.841 83.6626 63.294 79.6626 63.074M16.6626 1.00002L0.662591 18.799C0.162591 19.799 1.3 21 2.5 21C3.7 21 13.6626 9.28386 19.1626 3.29897C20.3563 2.00002 18.6626 -0.199985 16.6626 1.00002ZM25.5 30.1835C24.3334 29.4694 22.6 27.6696 25 26.1835C28 24.3259 28.5 28.1835 28 29.1835C27.6 29.9835 26.1667 30.1835 25.5 30.1835Z" stroke="black" stroke-width="0.3"/>
</svg>
