<?xml version="1.0" encoding="UTF-8"?>
<svg id="_图层_1" data-name=" 图层 1" xmlns="http://www.w3.org/2000/svg" xmlns:xlink="http://www.w3.org/1999/xlink" viewBox="0 0 446 349.5">
  <defs>
    <style>
      .cls-1 {
        fill: #1f1f2c;  /* 深色背景 */
      }

      .cls-1, .cls-2, .cls-3, .cls-4, .cls-5, .cls-6, .cls-7, .cls-8, .cls-9, .cls-10, .cls-11, .cls-12, .cls-13, .cls-14, .cls-15, .cls-16, .cls-17 {
        stroke-width: 0px;
      }

      .cls-2 {
        fill: #2a2a3a;  /* 深紫灰色 */
      }

      .cls-3 {
        fill: none;
      }

      .cls-4 {
        fill: url(#_未命名的渐变_2);
      }

      .cls-5 {
        fill: #252536;  /* 深紫色 */
      }

      .cls-6 {
        fill: #1a1a28;  /* 更深的紫黑色 */
      }

      .cls-7 {
        fill: rgba(30, 30, 40, .5);  /* 半透明深色 */
      }

      .cls-7, .cls-16 {
        fill-rule: evenodd;
      }

      .cls-8 {
        fill: #232334;  /* 深蓝紫色 */
      }

      .cls-9 {
        fill: rgba(25, 25, 35, .5);  /* 半透明深色 */
      }

      .cls-18 {
        clip-path: url(#clippath);
      }

      .cls-10 {
        fill: #1f1f2c;  /* 深色背景 */
      }

      .cls-19 {
        mask: url(#mask);
      }

      .cls-11, .cls-16 {
        fill: #353552;  /* 深蓝色 */
      }

      .cls-12 {
        fill: #212132;  /* 深紫色 */
      }

      .cls-13 {
        fill: #1c1c2a;  /* 深色背景 */
      }

      .cls-14 {
        fill: #202030;  /* 深蓝紫色 */
      }

      .cls-15 {
        fill: #242436;  /* 深紫色 */
      }

      .cls-17 {
        fill: #1e1e2e;  /* 深色背景 */
      }
    </style>
    <clipPath id="clippath">
      <rect class="cls-3" width="446" height="349.5"/>
    </clipPath>
    <linearGradient id="_未命名的渐变_2" data-name="未命名的渐变 2" x1="314.07" y1="308.15" x2="137.29" y2="49.2" gradientUnits="userSpaceOnUse">
      <stop offset="0" stop-color="#fff"/>
      <stop offset=".7" stop-color="#231815"/>
    </linearGradient>
    <mask id="mask" x="0" y="0" width="446" height="349.5" maskUnits="userSpaceOnUse">
      <rect class="cls-4" width="446" height="349.5"/>
    </mask>
  </defs>
  <g class="cls-18">
    <g>
      <g>
        <path class="cls-2" d="M377,349.5h38.5l-19.4-28.5-19.1,28.5Z"/>
        <path class="cls-7" d="M206,253.5l-4.6-6.7-4.4,6.7h9Z"/>
        <g class="cls-19">
          <g>
            <path class="cls-5" d="M206,253.5h135l-36.8-53.5-32.6-47.5-65.6,101Z"/>
            <path class="cls-2" d="M350,253.5l-65,96h92l19.1-28.5-46.1-67.5Z"/>
            <path class="cls-15" d="M423.5,146.5l-73.5,107,46.1,67.5,49.9-74.5v-66l-22.5-34Z"/>
            <path class="cls-8" d="M446,324.5v-78l-49.9,74.5,19.4,28.5h14l16.5-25Z"/>
            <path class="cls-1" d="M446,349.5v-25l-16.5,25h16.5Z"/>
            <path class="cls-14" d="M267.5,146.5h-134l67.9,100.3,66.1-100.3Z"/>
            <path class="cls-9" d="M175.2,253.5h21.8l4.4-6.7-67.9-100.3-16,23.5,57.7,83.5Z"/>
            <path class="cls-10" d="M281.5,146.5h-6l33,47.4,32.6-47.4h-59.6Z"/>
            <path class="cls-10" d="M350,253.5l73.5-107h-82.4l-32.6,47.4,41.5,59.6Z"/>
            <path class="cls-12" d="M419.2,33L396.5,0l-24.5,39.3h42.9l4.3-6.3h0Z"/>
            <path class="cls-12" d="M423.5,39.3l-4.3-6.3-4.3,6.3h8.6,0Z"/>
            <path class="cls-17" d="M74.5,39.3l71.5,107.2,65.6-100.5-4.6-6.7H74.5Z"/>
            <path class="cls-17" d="M216,39.3h-9l4.6,6.7,4.4-6.7Z"/>
            <path class="cls-6" d="M353.5,39.3h-137.5l-4.4,6.7,69.9,100.5s72-107.2,72-107.2Z"/>
          </g>
        </g>
        <path class="cls-13" d="M0,0l27.1,39.3h37.9L37,0H0Z"/>
        <path class="cls-13" d="M65,39.3L90.5,0h-53.5l28,39.3Z"/>
        <path class="cls-13" d="M117.5,170l16-23.5h12.5L74.5,39.3h132.5L183,0h-92.5l-25.5,39.3H27.1l90.3,130.7h.1Z"/>
        <path class="cls-13" d="M207,39.3h9L243.5,0h-60.5l24,39.3Z"/>
        <path class="cls-13" d="M216,39.3h156L338,0h-94.5l-27.5,39.3Z"/>
        <path class="cls-13" d="M267.5,146.5h14l-69.9-100.5-65.6,100.5h121.5Z"/>
        <path class="cls-13" d="M353.5,39.3l-72,107.2h59.6l73.8-107.2h-61.4Z"/>
        <path class="cls-13" d="M372,39.3L396.5,0h-58.5l34,39.3Z"/>
        <path class="cls-13" d="M446,180.5v-108.5l-22.5-32.7h-8.6l-73.8,107.2h82.4l22.5,34h0Z"/>
        <path class="cls-13" d="M241.5,349.5h43.5l65-96-41.5-59.6-4.2,6.1,36.8,53.5h-165.8l66.3,96h-.1Z"/>
        <path class="cls-13" d="M206,253.5l65.6-101-4.1-6-66.1,100.3,4.6,6.7Z"/>
        <path class="cls-13" d="M308.5,193.9l-33-47.4-3.9,6,32.6,47.5,4.2-6.1h.1Z"/>
        <path class="cls-13" d="M275.5,146.5h-8l4.1,6,3.9-6Z"/>
      </g>
      <g>
        <path class="cls-16" d="M445.6,94.7c-49.2,0-89.1,39.4-90.1,88.3v4.3c1.3,48.6,41.1,87.6,90,87.6s90.1-40.3,90.1-90.1-40.3-90.1-90.1-90.1h.1ZM352,184.8v-1.8c.9-50.9,42.5-91.9,93.6-91.9s93.6,41.9,93.6,93.6-41.9,93.6-93.6,93.6-92.3-40.6-93.6-91.1v-2.5.1Z"/>
        <path class="cls-16" d="M445.6,107.5c-42.7,0-77.3,34.6-77.3,77.3s34.6,77.3,77.3,77.3,77.3-34.6,77.3-77.3-34.6-77.3-77.3-77.3h0ZM366.9,184.8c0-43.5,35.2-78.7,78.7-78.7s78.7,35.2,78.7,78.7-35.2,78.7-78.7,78.7-78.7-35.2-78.7-78.7h0Z"/>
        <path class="cls-16" d="M445.6,120.3c-35.6,0-64.5,28.9-64.5,64.5s28.9,64.5,64.5,64.5,64.5-28.9,64.5-64.5-28.9-64.5-64.5-64.5ZM371.2,184.8c0-41.1,33.3-74.5,74.5-74.5s74.5,33.3,74.5,74.5-33.3,74.5-74.5,74.5-74.5-33.3-74.5-74.5h0Z"/>
        <path class="cls-16" d="M446,341.2c-1.1-3.2-2.1-10.3-2.1-13.1v-109.6c0-12.9-9.8-31.2-26.2-31.2h-125.9c-2.8,0-7.4-1.1-10.6-2.1,3.2-1.1,7.8-2.1,10.6-2.1h125.9c12.9,0,26.2-17.6,26.2-32.6V50.1h4.3v100.4c0,15,13.3,32.6,26.2,32.6h125.9c2.8,0,7.4,1.1,10.6,2.1-3.2,1.1-11.3,2.1-14.2,2.1h-122.4c-16.5,0-26.2,18.3-26.2,31.2v109.6c0,2.8-1.1,9.9-2.1,13.1h0ZM448.1,47.9v-23.8c0-2.8-1.1-9.9-2.1-13.1-1.1,3.2-2.1,10.3-2.1,13.1v23.8h4.3-.1ZM455.6,184.1c0,5.5-4.4,9.9-9.9,9.9s-9.9-4.4-9.9-9.9,4.4-9.9,9.9-9.9,9.9,4.4,9.9,9.9Z"/>
        <path class="cls-16" d="M445.6,87.6c57.6,0,104.3-9.4,104.3-20.9s-46.7-20.9-104.3-20.9-104.3,9.4-104.3,20.9,46.7,20.9,104.3,20.9h0ZM446,84.8c44.9,0,81.2-8.1,81.2-18.1s-36.4-18.1-81.2-18.1-81.2,8.1-81.2,18.1,36.4,18.1,81.2,18.1Z"/>
        <path class="cls-11" d="M400.6,142.6l3.5-3.5,8.9,11.7-.4.4-12.1-8.5.1-.1Z"/>
        <path class="cls-11" d="M400.3,227l3.5,3.5,8.9-11.7-.4-.4-12.1,8.5.1.1Z"/>
      </g>
    </g>
  </g>
</svg>